<svg width="35" height="35" viewBox="0 0 35 35" fill="none" xmlns="http://www.w3.org/2000/svg">
<path d="M15.164 1.29639C13.8197 2.78471 13.4362 4.49602 13.5953 6.25764C13.8014 8.53927 15.0023 10.8824 16.3875 12.5554C16.6899 12.864 16.9476 12.9348 17.2035 12.9184C17.463 12.9018 17.7427 12.7651 17.9659 12.5377C18.1891 12.3104 18.3421 12.0024 18.374 11.7086C18.4058 11.4149 18.3427 11.1388 18.0903 10.8521L18.0549 10.8119L18.0272 10.7663C16.5484 8.34458 14.6143 4.92114 15.164 1.29639ZM24.2406 1.40357C24.6604 3.94114 23.9155 6.34213 23.0303 8.4357C23.6233 8.9123 24.2305 9.4857 24.8344 10.1185C25.3591 8.86958 25.748 7.54136 25.8328 6.24656C25.9461 4.51693 25.5648 2.8653 24.2406 1.40357ZM20.0834 8.26686C20.0641 8.26668 20.0448 8.26753 20.0255 8.26939C19.6496 8.30664 19.0616 8.55362 18.4058 8.99345C18.6225 9.3723 18.8412 9.73768 19.0552 10.0886C19.4945 10.6147 19.6604 11.2574 19.5971 11.8414C19.5318 12.4437 19.2497 12.9864 18.8438 13.3998C18.438 13.8132 17.895 14.1071 17.2822 14.1464C16.6694 14.1857 16.0084 13.9375 15.4891 13.3986L15.4735 13.3825L15.4592 13.3652C15.2502 13.1135 15.0496 12.855 14.8578 12.5899C14.2534 13.4166 13.6991 14.3106 13.2422 15.2208C13.6019 15.1918 13.9098 15.167 14.3767 15.129C15.9042 15.005 17.9282 14.8395 19.9482 14.674C23.2589 14.4028 25.473 14.2207 26.5559 14.1316C25.8069 13.093 24.9676 12.0592 24.1238 11.1566C23.2802 10.2544 22.4316 9.48194 21.6905 8.9674C20.9957 8.48499 20.3925 8.26856 20.0834 8.26686ZM19.0552 10.0886C19.0415 10.0722 19.0283 10.0554 19.014 10.0393L19.0772 10.1251C19.0699 10.1132 19.0625 10.1005 19.0552 10.0886ZM27.359 15.3001C26.7096 15.3535 23.7115 15.6002 20.0486 15.9004C18.1913 16.0527 16.3338 16.2044 14.4763 16.3555C13.7339 16.4158 13.1225 16.4653 12.6716 16.5014C12.5331 16.8574 12.4115 17.2123 12.3121 17.5628L27.9877 16.3138C27.7862 15.971 27.5766 15.6329 27.359 15.3001ZM19.5515 18.1215L12.151 18.7946C10.3537 21.738 8.50247 24.1813 4.33132 25.9015C4.3238 26.6458 4.47481 27.2753 4.76985 27.8423C6.05541 27.6173 7.25198 27.3211 8.3944 26.9815C7.55105 27.7217 6.67735 28.4359 5.69113 29.0535C5.9766 29.3343 6.30335 29.603 6.66538 29.8627C8.49974 28.9535 10.979 27.5795 12.0275 26.8694L7.89763 30.6416C8.2639 30.8496 8.6502 31.0532 9.05222 31.255C9.75974 30.9404 10.4085 30.5867 10.9171 30.1397C10.7582 30.7294 10.5157 31.2857 10.2255 31.8229C10.6023 31.9997 10.9796 32.1752 11.3576 32.3494C12.9742 31.2642 14.6905 29.9358 15.8396 28.9854C15.2545 30.1471 14.097 31.7573 12.9648 33.1012C13.3727 33.2962 13.7817 33.496 14.1886 33.7039C16.0698 32.0954 17.1536 31.0607 18.3609 30.3608C19.4781 29.713 20.7448 29.366 22.7831 29.0376C20.6363 25.5404 19.302 22.3494 19.5515 18.1215ZM27.7981 18.2954C27.3634 18.4647 26.9283 18.6329 26.4927 18.7999C26.1155 18.945 25.7375 19.0882 25.3587 19.2293C25.2972 19.2521 25.2561 19.2664 25.2009 19.2866C25.4851 19.7555 25.7156 20.2442 25.8416 20.7295C25.8516 20.7679 25.8599 20.8067 25.8681 20.8454L27.0589 20.8691C28.2375 20.8926 28.7777 20.7215 29.1836 20.4863C28.8544 19.7992 28.3314 19.0085 27.7981 18.2954ZM20.747 19.0382C20.7389 19.9096 20.8036 20.7299 20.9358 21.518C21.0561 21.6362 21.2289 21.7734 21.448 21.909C22.1076 22.3172 23.1483 22.7184 24.2388 23.0092C24.2972 23.0248 24.3562 23.0388 24.4149 23.0538C24.4396 22.9628 24.4644 22.869 24.4884 22.7708C24.646 22.1249 24.727 21.3325 24.6507 21.0388C24.5224 20.5449 24.1201 19.8415 23.6521 19.2074L20.747 19.0382ZM25.8885 20.9559C26.0061 21.6645 25.8424 22.4123 25.6837 23.0625L25.6804 23.0756C26.0524 22.742 26.4033 22.4235 26.7469 22.113L25.8885 20.9559ZM28.5152 22.1946C27.091 23.4274 25.2075 25.3598 22.9324 26.8779C23.0365 27.0663 23.1426 27.2536 23.2505 27.4399C23.7842 27.341 24.3118 27.2119 24.8308 27.0532C26.7991 26.4492 28.6008 25.4043 29.4875 24.1608C29.4773 23.7427 29.3947 23.2719 29.2149 22.9042C29.0511 22.5691 28.8403 22.3308 28.5152 22.1946ZM21.3456 23.2548C21.6046 24.1034 21.9436 24.931 22.3517 25.7656C23.0222 25.3061 23.6677 24.8035 24.2836 24.2899C24.1627 24.2605 24.0421 24.2299 23.9218 24.1981C22.9894 23.9496 22.0939 23.6342 21.3456 23.2548ZM29.0685 26.3325C27.9737 27.1717 26.6047 27.7961 25.1918 28.2296C24.7749 28.3576 24.3531 28.469 23.9274 28.5637C24.0529 28.766 24.1796 28.9676 24.3074 29.1683L24.821 29.9732L23.8758 30.1083C22.8338 30.2572 22.0183 30.3969 21.3417 30.5513C21.6738 31.0841 21.962 31.6248 22.3003 32.0612C22.7051 32.5834 23.1423 32.9527 23.8783 33.0997C24.4053 33.205 24.9056 33.2816 25.3792 33.3339C24.6702 32.1394 24.0933 31.0434 24.238 31.0145C24.9533 31.869 25.7164 32.6835 26.5774 33.4164C26.9897 33.4261 27.3745 33.4144 27.731 33.3841C27.2833 32.6528 26.9728 31.8774 27.5027 30.8704C27.558 31.3166 28.3779 32.2781 29.2037 33.1093C29.9334 32.8778 30.4055 32.5413 30.6692 32.192C30.5347 31.7406 30.4471 31.3201 30.3259 30.9679C30.1746 30.5286 29.9785 30.165 29.4753 29.7698L29.1958 29.5504L29.2463 29.1986C29.3768 28.289 29.249 27.3326 29.0685 26.3325Z" fill="#7A89E9"/>
</svg>
