<svg width="25" height="26" viewBox="0 0 25 26" fill="none" xmlns="http://www.w3.org/2000/svg">
<g clip-path="url(#clip0_172_528)">
<path d="M24.9881 13.2431C24.9881 12.1779 24.903 11.4006 24.7189 10.5945H12.749V15.4023H19.7751C19.6335 16.5971 18.8686 18.3965 17.1687 19.6056L17.1448 19.7665L20.9295 22.7459L21.1917 22.7725C23.5998 20.5125 24.9881 17.1873 24.9881 13.2431Z" fill="#4285F4"/>
<path d="M12.7485 25.9106C16.1907 25.9106 19.0805 24.759 21.1912 22.7726L17.1682 19.6056C16.0916 20.3686 14.6467 20.9012 12.7485 20.9012C9.37715 20.9012 6.51572 18.6412 5.4957 15.5176L5.34619 15.5305L1.41084 18.6254L1.35938 18.7708C3.45586 23.0028 7.76221 25.9106 12.7485 25.9106Z" fill="#34A853"/>
<path d="M5.49619 15.5175C5.22705 14.7114 5.07129 13.8477 5.07129 12.9552C5.07129 12.0627 5.22705 11.199 5.48203 10.393L5.4749 10.2213L1.49023 7.07666L1.35986 7.13968C0.495801 8.89587 0 10.868 0 12.9552C0 15.0425 0.495801 17.0145 1.35986 18.7707L5.49619 15.5175Z" fill="#FBBC05"/>
<path d="M12.7485 5.00937C15.1425 5.00937 16.7573 6.06018 17.6781 6.93833L21.2762 3.36839C19.0664 1.28114 16.1907 0 12.7485 0C7.76221 0 3.45586 2.90773 1.35938 7.13978L5.48154 10.3931C6.51572 7.26938 9.37715 5.00937 12.7485 5.00937Z" fill="#EB4335"/>
</g>
<defs>
<clipPath id="clip0_172_528">
<rect width="25" height="26" fill="white"/>
</clipPath>
</defs>
</svg>
