<svg width="243" height="42" viewBox="0 0 243 42" fill="none" xmlns="http://www.w3.org/2000/svg">
<path d="M15.164 1.29639C13.8197 2.78471 13.4362 4.49602 13.5953 6.25764C13.8014 8.53927 15.0023 10.8824 16.3875 12.5554C16.6899 12.864 16.9476 12.9348 17.2035 12.9184C17.463 12.9018 17.7427 12.7651 17.9659 12.5377C18.1891 12.3104 18.3421 12.0024 18.374 11.7086C18.4058 11.4149 18.3427 11.1388 18.0903 10.8521L18.0549 10.8119L18.0272 10.7663C16.5484 8.34458 14.6143 4.92114 15.164 1.29639ZM24.2406 1.40357C24.6604 3.94114 23.9155 6.34213 23.0303 8.4357C23.6233 8.9123 24.2305 9.4857 24.8344 10.1185C25.3591 8.86958 25.748 7.54136 25.8328 6.24656C25.9461 4.51693 25.5648 2.8653 24.2406 1.40357ZM20.0834 8.26686C20.0641 8.26668 20.0448 8.26753 20.0255 8.26939C19.6496 8.30664 19.0616 8.55362 18.4058 8.99345C18.6225 9.3723 18.8412 9.73767 19.0552 10.0886C19.4945 10.6147 19.6604 11.2574 19.5971 11.8414C19.5318 12.4437 19.2497 12.9864 18.8438 13.3998C18.438 13.8132 17.895 14.1071 17.2822 14.1464C16.6694 14.1857 16.0084 13.9375 15.4891 13.3986L15.4735 13.3825L15.4592 13.3652C15.2502 13.1135 15.0496 12.855 14.8578 12.5899C14.2534 13.4166 13.6991 14.3106 13.2422 15.2208C13.6019 15.1918 13.9098 15.167 14.3767 15.129C15.9042 15.005 17.9282 14.8395 19.9482 14.674C23.2589 14.4028 25.473 14.2207 26.5559 14.1316C25.8069 13.093 24.9676 12.0592 24.1238 11.1566C23.2802 10.2544 22.4316 9.48194 21.6905 8.9674C20.9957 8.48499 20.3925 8.26856 20.0834 8.26686ZM19.0552 10.0886C19.0415 10.0722 19.0283 10.0554 19.014 10.0393L19.0772 10.1251C19.0699 10.1132 19.0625 10.1005 19.0552 10.0886ZM27.359 15.3001C26.7096 15.3535 23.7115 15.6002 20.0486 15.9004C18.1913 16.0527 16.3338 16.2044 14.4763 16.3555C13.7339 16.4158 13.1225 16.4653 12.6716 16.5014C12.5331 16.8574 12.4115 17.2123 12.3121 17.5628L27.9877 16.3138C27.7862 15.971 27.5766 15.6329 27.359 15.3001ZM19.5515 18.1215L12.151 18.7946C10.3537 21.738 8.50247 24.1813 4.33132 25.9015C4.3238 26.6458 4.47481 27.2753 4.76985 27.8423C6.05541 27.6173 7.25198 27.3211 8.3944 26.9815C7.55105 27.7217 6.67735 28.4359 5.69113 29.0535C5.9766 29.3343 6.30335 29.603 6.66538 29.8627C8.49974 28.9535 10.979 27.5795 12.0275 26.8694L7.89763 30.6416C8.2639 30.8496 8.6502 31.0532 9.05222 31.255C9.75974 30.9404 10.4085 30.5867 10.9171 30.1397C10.7582 30.7294 10.5157 31.2857 10.2255 31.8229C10.6023 31.9997 10.9796 32.1752 11.3576 32.3494C12.9742 31.2642 14.6905 29.9358 15.8396 28.9854C15.2545 30.1471 14.097 31.7573 12.9648 33.1012C13.3727 33.2962 13.7817 33.496 14.1886 33.7039C16.0698 32.0954 17.1536 31.0607 18.3609 30.3608C19.4781 29.713 20.7448 29.366 22.7831 29.0376C20.6363 25.5404 19.302 22.3492 19.5515 18.1213L19.5515 18.1215ZM27.7981 18.2954C27.3634 18.4647 26.9283 18.6329 26.4927 18.7999C26.1155 18.945 25.7375 19.0882 25.3587 19.2293C25.2972 19.2521 25.2561 19.2664 25.2009 19.2866C25.4851 19.7555 25.7156 20.2442 25.8416 20.7295C25.8516 20.7679 25.8599 20.8067 25.8681 20.8454L27.0589 20.8691C28.2375 20.8926 28.7777 20.7215 29.1836 20.4863C28.8544 19.7992 28.3314 19.0085 27.7981 18.2954ZM20.747 19.0382C20.7389 19.9095 20.8036 20.7299 20.9358 21.518C21.0561 21.6362 21.2289 21.7734 21.448 21.909C22.1076 22.3172 23.1483 22.7184 24.2388 23.0092C24.2972 23.0248 24.3562 23.0388 24.4149 23.0538C24.4396 22.9628 24.4644 22.869 24.4884 22.7708C24.646 22.1249 24.727 21.3325 24.6507 21.0388C24.5224 20.5449 24.1201 19.8415 23.6521 19.2074L20.747 19.0382ZM25.8885 20.9559C26.0061 21.6645 25.8424 22.4123 25.6837 23.0625L25.6804 23.0756C26.0524 22.742 26.4033 22.4235 26.7469 22.113L25.8885 20.9559ZM28.5152 22.1946C27.091 23.4274 25.2075 25.3598 22.9324 26.8779C23.0365 27.0663 23.1426 27.2536 23.2505 27.4399C23.7842 27.341 24.3118 27.2119 24.8308 27.0532C26.7991 26.4492 28.6008 25.4043 29.4875 24.1608C29.4773 23.7427 29.3947 23.2719 29.2149 22.9042C29.0511 22.5691 28.8403 22.3308 28.5152 22.1946ZM21.3456 23.2548C21.6046 24.1034 21.9436 24.931 22.3517 25.7656C23.0222 25.3061 23.6677 24.8035 24.2836 24.2899C24.1627 24.2605 24.0421 24.2299 23.9218 24.1981C22.9894 23.9496 22.0939 23.6342 21.3456 23.2548ZM29.0685 26.3325C27.9737 27.1717 26.6047 27.7961 25.1918 28.2296C24.7749 28.3576 24.3531 28.469 23.9274 28.5637C24.0529 28.766 24.1796 28.9676 24.3074 29.1683L24.821 29.9732L23.8758 30.1083C22.8338 30.2572 22.0183 30.3969 21.3417 30.5513C21.6738 31.0841 21.962 31.6248 22.3003 32.0612C22.7051 32.5834 23.1423 32.9527 23.8783 33.0997C24.4053 33.205 24.9056 33.2816 25.3792 33.3339C24.6702 32.1394 24.0933 31.0434 24.238 31.0145C24.9533 31.869 25.7164 32.6835 26.5774 33.4164C26.9897 33.4261 27.3745 33.4144 27.731 33.3841C27.2833 32.6528 26.9728 31.8774 27.5027 30.8704C27.558 31.3166 28.3779 32.2781 29.2037 33.1093C29.9334 32.8778 30.4055 32.5413 30.6692 32.192C30.5347 31.7406 30.4471 31.3201 30.3259 30.9679C30.1746 30.5286 29.9785 30.165 29.4753 29.7698L29.1958 29.5504L29.2463 29.1986C29.3768 28.289 29.249 27.3326 29.0685 26.3325Z" fill="#7A89E9"/>
<path d="M53.566 14.31V17.118H50.182V27H46.654V17.118H43.306V14.31H53.566ZM64.5193 21.834C64.5193 22.11 64.5013 22.386 64.4653 22.662H57.7873C57.8233 23.214 57.9733 23.628 58.2373 23.904C58.5133 24.168 58.8613 24.3 59.2813 24.3C59.8693 24.3 60.2893 24.036 60.5413 23.508H64.3033C64.1473 24.204 63.8413 24.828 63.3853 25.38C62.9413 25.92 62.3773 26.346 61.6933 26.658C61.0093 26.97 60.2533 27.126 59.4253 27.126C58.4293 27.126 57.5413 26.916 56.7613 26.496C55.9933 26.076 55.3873 25.476 54.9433 24.696C54.5113 23.916 54.2953 22.998 54.2953 21.942C54.2953 20.886 54.5113 19.974 54.9433 19.206C55.3753 18.426 55.9753 17.826 56.7433 17.406C57.5233 16.986 58.4173 16.776 59.4253 16.776C60.4213 16.776 61.3033 16.98 62.0713 17.388C62.8393 17.796 63.4393 18.384 63.8713 19.152C64.3033 19.908 64.5193 20.802 64.5193 21.834ZM60.9193 20.952C60.9193 20.52 60.7753 20.184 60.4873 19.944C60.1993 19.692 59.8393 19.566 59.4073 19.566C58.9753 19.566 58.6213 19.686 58.3453 19.926C58.0693 20.154 57.8893 20.496 57.8053 20.952H60.9193ZM65.3871 21.942C65.3871 20.898 65.6031 19.986 66.0351 19.206C66.4671 18.426 67.0671 17.826 67.8351 17.406C68.6151 16.986 69.5031 16.776 70.4991 16.776C71.7831 16.776 72.8631 17.13 73.7391 17.838C74.6151 18.534 75.1791 19.512 75.4311 20.772H71.6871C71.4711 20.112 71.0511 19.782 70.4271 19.782C69.9831 19.782 69.6291 19.968 69.3651 20.34C69.1131 20.7 68.9871 21.234 68.9871 21.942C68.9871 22.65 69.1131 23.19 69.3651 23.562C69.6291 23.934 69.9831 24.12 70.4271 24.12C71.0631 24.12 71.4831 23.79 71.6871 23.13H75.4311C75.1791 24.378 74.6151 25.356 73.7391 26.064C72.8631 26.772 71.7831 27.126 70.4991 27.126C69.5031 27.126 68.6151 26.916 67.8351 26.496C67.0671 26.076 66.4671 25.476 66.0351 24.696C65.6031 23.916 65.3871 22.998 65.3871 21.942ZM83.5387 16.812C84.6907 16.812 85.6027 17.202 86.2747 17.982C86.9587 18.75 87.3007 19.794 87.3007 21.114V27H83.7727V21.582C83.7727 21.006 83.6227 20.556 83.3227 20.232C83.0227 19.896 82.6207 19.728 82.1167 19.728C81.5887 19.728 81.1747 19.896 80.8747 20.232C80.5747 20.556 80.4247 21.006 80.4247 21.582V27H76.8967V13.68H80.4247V18.342C80.7367 17.886 81.1567 17.52 81.6847 17.244C82.2247 16.956 82.8427 16.812 83.5387 16.812Z" fill="#7A89E9"/>
<path d="M97.0305 19.296V22.23H88.8765V19.296H97.0305ZM109.201 14.31V17.118H105.817V27H102.289V17.118H98.9408V14.31H109.201ZM112.288 15.966C111.664 15.966 111.16 15.798 110.776 15.462C110.404 15.114 110.218 14.682 110.218 14.166C110.218 13.638 110.404 13.2 110.776 12.852C111.16 12.504 111.664 12.33 112.288 12.33C112.9 12.33 113.392 12.504 113.764 12.852C114.148 13.2 114.34 13.638 114.34 14.166C114.34 14.682 114.148 15.114 113.764 15.462C113.392 15.798 112.9 15.966 112.288 15.966ZM114.034 16.902V27H110.506V16.902H114.034ZM122.001 23.994V27H120.471C117.891 27 116.601 25.722 116.601 23.166V19.836H115.359V16.902H116.601V14.454H120.147V16.902H121.983V19.836H120.147V23.22C120.147 23.496 120.207 23.694 120.327 23.814C120.459 23.934 120.675 23.994 120.975 23.994H122.001ZM123.043 21.942C123.043 20.898 123.229 19.986 123.601 19.206C123.985 18.426 124.501 17.826 125.149 17.406C125.809 16.986 126.541 16.776 127.345 16.776C128.041 16.776 128.641 16.914 129.145 17.19C129.649 17.466 130.039 17.838 130.315 18.306V16.902H133.843V27H130.315V25.596C130.039 26.064 129.643 26.436 129.127 26.712C128.623 26.988 128.029 27.126 127.345 27.126C126.541 27.126 125.809 26.916 125.149 26.496C124.501 26.076 123.985 25.476 123.601 24.696C123.229 23.904 123.043 22.986 123.043 21.942ZM130.315 21.942C130.315 21.294 130.135 20.784 129.775 20.412C129.427 20.04 128.995 19.854 128.479 19.854C127.951 19.854 127.513 20.04 127.165 20.412C126.817 20.772 126.643 21.282 126.643 21.942C126.643 22.59 126.817 23.106 127.165 23.49C127.513 23.862 127.951 24.048 128.479 24.048C128.995 24.048 129.427 23.862 129.775 23.49C130.135 23.118 130.315 22.602 130.315 21.942ZM142.46 16.812C143.624 16.812 144.548 17.202 145.232 17.982C145.916 18.75 146.258 19.794 146.258 21.114V27H142.73V21.582C142.73 21.006 142.58 20.556 142.28 20.232C141.98 19.896 141.578 19.728 141.074 19.728C140.546 19.728 140.132 19.896 139.832 20.232C139.532 20.556 139.382 21.006 139.382 21.582V27H135.854V16.902H139.382V18.342C139.694 17.886 140.114 17.52 140.642 17.244C141.17 16.956 141.776 16.812 142.46 16.812ZM152.496 27.126C151.584 27.126 150.768 26.976 150.048 26.676C149.34 26.364 148.776 25.944 148.356 25.416C147.948 24.876 147.72 24.27 147.672 23.598H151.092C151.14 23.922 151.29 24.174 151.542 24.354C151.794 24.534 152.106 24.624 152.478 24.624C152.766 24.624 152.994 24.564 153.162 24.444C153.33 24.324 153.414 24.168 153.414 23.976C153.414 23.724 153.276 23.538 153 23.418C152.724 23.298 152.268 23.166 151.632 23.022C150.912 22.878 150.312 22.716 149.832 22.536C149.352 22.356 148.932 22.062 148.572 21.654C148.224 21.246 148.05 20.694 148.05 19.998C148.05 19.398 148.212 18.858 148.536 18.378C148.86 17.886 149.334 17.496 149.958 17.208C150.594 16.92 151.356 16.776 152.244 16.776C153.564 16.776 154.602 17.1 155.358 17.748C156.114 18.396 156.552 19.248 156.672 20.304H153.486C153.426 19.98 153.282 19.734 153.054 19.566C152.838 19.386 152.544 19.296 152.172 19.296C151.884 19.296 151.662 19.35 151.506 19.458C151.362 19.566 151.29 19.716 151.29 19.908C151.29 20.148 151.428 20.334 151.704 20.466C151.98 20.586 152.424 20.712 153.036 20.844C153.768 21 154.374 21.174 154.854 21.366C155.346 21.558 155.772 21.87 156.132 22.302C156.504 22.722 156.69 23.298 156.69 24.03C156.69 24.618 156.516 25.146 156.168 25.614C155.832 26.082 155.346 26.454 154.71 26.73C154.086 26.994 153.348 27.126 152.496 27.126Z" fill="black"/>
</svg>
