<svg width="521" height="662" viewBox="0 0 521 662" fill="none" xmlns="http://www.w3.org/2000/svg">
<rect x="1.04004" width="519.96" height="662" fill="#9EABFF"/>
<path d="M89.5134 532.983C88.4867 532.983 87.5667 532.817 86.7534 532.483C85.94 532.15 85.2867 531.657 84.7934 531.003C84.3134 530.35 84.06 529.563 84.0334 528.643H87.6734C87.7267 529.163 87.9067 529.563 88.2134 529.843C88.52 530.11 88.92 530.243 89.4134 530.243C89.92 530.243 90.32 530.13 90.6134 529.903C90.9067 529.663 91.0534 529.337 91.0534 528.923C91.0534 528.577 90.9334 528.29 90.6934 528.063C90.4667 527.837 90.18 527.65 89.8334 527.503C89.5 527.357 89.02 527.19 88.3934 527.003C87.4867 526.723 86.7467 526.443 86.1734 526.163C85.6 525.883 85.1067 525.47 84.6934 524.923C84.28 524.377 84.0734 523.663 84.0734 522.783C84.0734 521.477 84.5467 520.457 85.4934 519.723C86.44 518.977 87.6734 518.603 89.1934 518.603C90.74 518.603 91.9867 518.977 92.9334 519.723C93.88 520.457 94.3867 521.483 94.4534 522.803H90.7534C90.7267 522.35 90.56 521.997 90.2534 521.743C89.9467 521.477 89.5534 521.343 89.0734 521.343C88.66 521.343 88.3267 521.457 88.0734 521.683C87.82 521.897 87.6934 522.21 87.6934 522.623C87.6934 523.077 87.9067 523.43 88.3334 523.683C88.76 523.937 89.4267 524.21 90.3334 524.503C91.24 524.81 91.9734 525.103 92.5334 525.383C93.1067 525.663 93.6 526.07 94.0134 526.603C94.4267 527.137 94.6334 527.823 94.6334 528.663C94.6334 529.463 94.4267 530.19 94.0134 530.843C93.6134 531.497 93.0267 532.017 92.2534 532.403C91.48 532.79 90.5667 532.983 89.5134 532.983ZM103.598 521.563C104.878 521.563 105.905 521.99 106.678 522.843C107.451 523.683 107.838 524.843 107.838 526.323V532.843H104.438V526.783C104.438 526.037 104.245 525.457 103.858 525.043C103.471 524.63 102.951 524.423 102.298 524.423C101.645 524.423 101.125 524.63 100.738 525.043C100.351 525.457 100.158 526.037 100.158 526.783V532.843H96.738V518.043H100.158V523.183C100.505 522.69 100.978 522.297 101.578 522.003C102.178 521.71 102.851 521.563 103.598 521.563ZM115.295 533.003C114.201 533.003 113.215 532.77 112.335 532.303C111.468 531.837 110.781 531.17 110.275 530.303C109.781 529.437 109.535 528.423 109.535 527.263C109.535 526.117 109.788 525.11 110.295 524.243C110.801 523.363 111.495 522.69 112.375 522.223C113.255 521.757 114.241 521.523 115.335 521.523C116.428 521.523 117.415 521.757 118.295 522.223C119.175 522.69 119.868 523.363 120.375 524.243C120.881 525.11 121.135 526.117 121.135 527.263C121.135 528.41 120.875 529.423 120.355 530.303C119.848 531.17 119.148 531.837 118.255 532.303C117.375 532.77 116.388 533.003 115.295 533.003ZM115.295 530.043C115.948 530.043 116.501 529.803 116.955 529.323C117.421 528.843 117.655 528.157 117.655 527.263C117.655 526.37 117.428 525.683 116.975 525.203C116.535 524.723 115.988 524.483 115.335 524.483C114.668 524.483 114.115 524.723 113.675 525.203C113.235 525.67 113.015 526.357 113.015 527.263C113.015 528.157 113.228 528.843 113.655 529.323C114.095 529.803 114.641 530.043 115.295 530.043ZM126.369 523.263C126.702 522.743 127.162 522.323 127.749 522.003C128.336 521.683 129.022 521.523 129.809 521.523C130.729 521.523 131.562 521.757 132.309 522.223C133.056 522.69 133.642 523.357 134.069 524.223C134.509 525.09 134.729 526.097 134.729 527.243C134.729 528.39 134.509 529.403 134.069 530.283C133.642 531.15 133.056 531.823 132.309 532.303C131.562 532.77 130.729 533.003 129.809 533.003C129.036 533.003 128.349 532.843 127.749 532.523C127.162 532.203 126.702 531.79 126.369 531.283V538.163H122.949V521.683H126.369V523.263ZM131.249 527.243C131.249 526.39 131.009 525.723 130.529 525.243C130.062 524.75 129.482 524.503 128.789 524.503C128.109 524.503 127.529 524.75 127.049 525.243C126.582 525.737 126.349 526.41 126.349 527.263C126.349 528.117 126.582 528.79 127.049 529.283C127.529 529.777 128.109 530.023 128.789 530.023C129.469 530.023 130.049 529.777 130.529 529.283C131.009 528.777 131.249 528.097 131.249 527.243ZM145.301 533.003C144.328 533.003 143.461 532.837 142.701 532.503C141.941 532.17 141.341 531.717 140.901 531.143C140.461 530.557 140.215 529.903 140.161 529.183H143.541C143.581 529.57 143.761 529.883 144.081 530.123C144.401 530.363 144.795 530.483 145.261 530.483C145.688 530.483 146.015 530.403 146.241 530.243C146.481 530.07 146.601 529.85 146.601 529.583C146.601 529.263 146.435 529.03 146.101 528.883C145.768 528.723 145.228 528.55 144.481 528.363C143.681 528.177 143.015 527.983 142.481 527.783C141.948 527.57 141.488 527.243 141.101 526.803C140.715 526.35 140.521 525.743 140.521 524.983C140.521 524.343 140.695 523.763 141.041 523.243C141.401 522.71 141.921 522.29 142.601 521.983C143.295 521.677 144.115 521.523 145.061 521.523C146.461 521.523 147.561 521.87 148.361 522.563C149.175 523.257 149.641 524.177 149.761 525.323H146.601C146.548 524.937 146.375 524.63 146.081 524.403C145.801 524.177 145.428 524.063 144.961 524.063C144.561 524.063 144.255 524.143 144.041 524.303C143.828 524.45 143.721 524.657 143.721 524.923C143.721 525.243 143.888 525.483 144.221 525.643C144.568 525.803 145.101 525.963 145.821 526.123C146.648 526.337 147.321 526.55 147.841 526.763C148.361 526.963 148.815 527.297 149.201 527.763C149.601 528.217 149.808 528.83 149.821 529.603C149.821 530.257 149.635 530.843 149.261 531.363C148.901 531.87 148.375 532.27 147.681 532.563C147.001 532.857 146.208 533.003 145.301 533.003ZM166.154 521.563C167.54 521.563 168.64 521.983 169.454 522.823C170.28 523.663 170.694 524.83 170.694 526.323V532.843H167.294V526.783C167.294 526.063 167.1 525.51 166.714 525.123C166.34 524.723 165.82 524.523 165.154 524.523C164.487 524.523 163.96 524.723 163.574 525.123C163.2 525.51 163.014 526.063 163.014 526.783V532.843H159.614V526.783C159.614 526.063 159.42 525.51 159.034 525.123C158.66 524.723 158.14 524.523 157.474 524.523C156.807 524.523 156.28 524.723 155.894 525.123C155.52 525.51 155.334 526.063 155.334 526.783V532.843H151.914V521.683H155.334V523.083C155.68 522.617 156.134 522.25 156.694 521.983C157.254 521.703 157.887 521.563 158.594 521.563C159.434 521.563 160.18 521.743 160.834 522.103C161.5 522.463 162.02 522.977 162.394 523.643C162.78 523.03 163.307 522.53 163.974 522.143C164.64 521.757 165.367 521.563 166.154 521.563ZM172.406 527.243C172.406 526.097 172.619 525.09 173.046 524.223C173.486 523.357 174.079 522.69 174.826 522.223C175.572 521.757 176.406 521.523 177.326 521.523C178.112 521.523 178.799 521.683 179.386 522.003C179.986 522.323 180.446 522.743 180.766 523.263V521.683H184.186V532.843H180.766V531.263C180.432 531.783 179.966 532.203 179.366 532.523C178.779 532.843 178.092 533.003 177.306 533.003C176.399 533.003 175.572 532.77 174.826 532.303C174.079 531.823 173.486 531.15 173.046 530.283C172.619 529.403 172.406 528.39 172.406 527.243ZM180.766 527.263C180.766 526.41 180.526 525.737 180.046 525.243C179.579 524.75 179.006 524.503 178.326 524.503C177.646 524.503 177.066 524.75 176.586 525.243C176.119 525.723 175.886 526.39 175.886 527.243C175.886 528.097 176.119 528.777 176.586 529.283C177.066 529.777 177.646 530.023 178.326 530.023C179.006 530.023 179.579 529.777 180.046 529.283C180.526 528.79 180.766 528.117 180.766 527.263ZM190.08 523.543C190.48 522.93 190.98 522.45 191.58 522.103C192.18 521.743 192.847 521.563 193.58 521.563V525.183H192.64C191.787 525.183 191.147 525.37 190.72 525.743C190.293 526.103 190.08 526.743 190.08 527.663V532.843H186.66V521.683H190.08V523.543ZM201.435 529.943V532.843H199.695C198.455 532.843 197.488 532.543 196.795 531.943C196.101 531.33 195.755 530.337 195.755 528.963V524.523H194.395V521.683H195.755V518.963H199.175V521.683H201.415V524.523H199.175V529.003C199.175 529.337 199.255 529.577 199.415 529.723C199.575 529.87 199.841 529.943 200.215 529.943H201.435ZM213.86 527.083C213.86 527.403 213.84 527.737 213.8 528.083H206.06C206.113 528.777 206.333 529.31 206.72 529.683C207.12 530.043 207.606 530.223 208.18 530.223C209.033 530.223 209.626 529.863 209.96 529.143H213.6C213.413 529.877 213.073 530.537 212.58 531.123C212.1 531.71 211.493 532.17 210.76 532.503C210.026 532.837 209.206 533.003 208.3 533.003C207.206 533.003 206.233 532.77 205.38 532.303C204.526 531.837 203.86 531.17 203.38 530.303C202.9 529.437 202.66 528.423 202.66 527.263C202.66 526.103 202.893 525.09 203.36 524.223C203.84 523.357 204.506 522.69 205.36 522.223C206.213 521.757 207.193 521.523 208.3 521.523C209.38 521.523 210.34 521.75 211.18 522.203C212.02 522.657 212.673 523.303 213.14 524.143C213.62 524.983 213.86 525.963 213.86 527.083ZM210.36 526.183C210.36 525.597 210.16 525.13 209.76 524.783C209.36 524.437 208.86 524.263 208.26 524.263C207.686 524.263 207.2 524.43 206.8 524.763C206.413 525.097 206.173 525.57 206.08 526.183H210.36ZM219.084 523.543C219.484 522.93 219.984 522.45 220.584 522.103C221.184 521.743 221.85 521.563 222.584 521.563V525.183H221.644C220.79 525.183 220.15 525.37 219.724 525.743C219.297 526.103 219.084 526.743 219.084 527.663V532.843H215.664V521.683H219.084V523.543ZM227.899 529.683L225.679 535.423H223.499L224.659 529.683H227.899ZM346.512 529.683L344.292 535.423H342.112L343.272 529.683H346.512ZM368.832 521.683L365.812 532.843H362.032L360.272 525.603L358.452 532.843H354.692L351.652 521.683H355.072L356.652 529.663L358.532 521.683H362.152L364.052 529.623L365.612 521.683H368.832ZM371.856 520.523C371.256 520.523 370.763 520.35 370.376 520.003C370.003 519.643 369.816 519.203 369.816 518.683C369.816 518.15 370.003 517.71 370.376 517.363C370.763 517.003 371.256 516.823 371.856 516.823C372.443 516.823 372.923 517.003 373.296 517.363C373.683 517.71 373.876 518.15 373.876 518.683C373.876 519.203 373.683 519.643 373.296 520.003C372.923 520.35 372.443 520.523 371.856 520.523ZM373.556 521.683V532.843H370.136V521.683H373.556ZM382.255 529.943V532.843H380.515C379.275 532.843 378.308 532.543 377.615 531.943C376.922 531.33 376.575 530.337 376.575 528.963V524.523H375.215V521.683H376.575V518.963H379.995V521.683H382.235V524.523H379.995V529.003C379.995 529.337 380.075 529.577 380.235 529.723C380.395 529.87 380.662 529.943 381.035 529.943H382.255ZM391.02 521.563C392.3 521.563 393.327 521.99 394.1 522.843C394.873 523.683 395.26 524.843 395.26 526.323V532.843H391.86V526.783C391.86 526.037 391.667 525.457 391.28 525.043C390.893 524.63 390.373 524.423 389.72 524.423C389.067 524.423 388.547 524.63 388.16 525.043C387.773 525.457 387.58 526.037 387.58 526.783V532.843H384.16V518.043H387.58V523.183C387.927 522.69 388.4 522.297 389 522.003C389.6 521.71 390.273 521.563 391.02 521.563ZM211.404 563.003C210.804 563.003 210.311 562.83 209.924 562.483C209.551 562.123 209.364 561.683 209.364 561.163C209.364 560.63 209.551 560.183 209.924 559.823C210.311 559.463 210.804 559.283 211.404 559.283C211.991 559.283 212.471 559.463 212.844 559.823C213.231 560.183 213.424 560.63 213.424 561.163C213.424 561.683 213.231 562.123 212.844 562.483C212.471 562.83 211.991 563.003 211.404 563.003Z" fill="black"/>
<path d="M240.999 521.563C242.306 521.563 243.346 521.99 244.119 522.843C244.906 523.683 245.299 524.843 245.299 526.323V532.843H241.899V526.783C241.899 526.037 241.706 525.457 241.319 525.043C240.932 524.63 240.412 524.423 239.759 524.423C239.106 524.423 238.586 524.63 238.199 525.043C237.812 525.457 237.619 526.037 237.619 526.783V532.843H234.199V521.683H237.619V523.163C237.966 522.67 238.432 522.283 239.019 522.003C239.606 521.71 240.266 521.563 240.999 521.563ZM252.756 533.003C251.662 533.003 250.676 532.77 249.796 532.303C248.929 531.837 248.242 531.17 247.736 530.303C247.242 529.437 246.996 528.423 246.996 527.263C246.996 526.117 247.249 525.11 247.756 524.243C248.262 523.363 248.956 522.69 249.836 522.223C250.716 521.757 251.702 521.523 252.796 521.523C253.889 521.523 254.876 521.757 255.756 522.223C256.636 522.69 257.329 523.363 257.836 524.243C258.342 525.11 258.596 526.117 258.596 527.263C258.596 528.41 258.336 529.423 257.816 530.303C257.309 531.17 256.609 531.837 255.716 532.303C254.836 532.77 253.849 533.003 252.756 533.003ZM252.756 530.043C253.409 530.043 253.962 529.803 254.416 529.323C254.882 528.843 255.116 528.157 255.116 527.263C255.116 526.37 254.889 525.683 254.436 525.203C253.996 524.723 253.449 524.483 252.796 524.483C252.129 524.483 251.576 524.723 251.136 525.203C250.696 525.67 250.476 526.357 250.476 527.263C250.476 528.157 250.689 528.843 251.116 529.323C251.556 529.803 252.102 530.043 252.756 530.043ZM266.63 529.943V532.843H264.89C263.65 532.843 262.683 532.543 261.99 531.943C261.297 531.33 260.95 530.337 260.95 528.963V524.523H259.59V521.683H260.95V518.963H264.37V521.683H266.61V524.523H264.37V529.003C264.37 529.337 264.45 529.577 264.61 529.723C264.77 529.87 265.037 529.943 265.41 529.943H266.63ZM279.633 521.563C280.913 521.563 281.94 521.99 282.713 522.843C283.487 523.683 283.873 524.843 283.873 526.323V532.843H280.473V526.783C280.473 526.037 280.28 525.457 279.893 525.043C279.507 524.63 278.987 524.423 278.333 524.423C277.68 524.423 277.16 524.63 276.773 525.043C276.387 525.457 276.193 526.037 276.193 526.783V532.843H272.773V518.043H276.193V523.183C276.54 522.69 277.013 522.297 277.613 522.003C278.213 521.71 278.887 521.563 279.633 521.563ZM285.57 527.243C285.57 526.097 285.783 525.09 286.21 524.223C286.65 523.357 287.243 522.69 287.99 522.223C288.736 521.757 289.57 521.523 290.49 521.523C291.276 521.523 291.963 521.683 292.55 522.003C293.15 522.323 293.61 522.743 293.93 523.263V521.683H297.35V532.843H293.93V531.263C293.596 531.783 293.13 532.203 292.53 532.523C291.943 532.843 291.256 533.003 290.47 533.003C289.563 533.003 288.736 532.77 287.99 532.303C287.243 531.823 286.65 531.15 286.21 530.283C285.783 529.403 285.57 528.39 285.57 527.243ZM293.93 527.263C293.93 526.41 293.69 525.737 293.21 525.243C292.743 524.75 292.17 524.503 291.49 524.503C290.81 524.503 290.23 524.75 289.75 525.243C289.283 525.723 289.05 526.39 289.05 527.243C289.05 528.097 289.283 528.777 289.75 529.283C290.23 529.777 290.81 530.023 291.49 530.023C292.17 530.023 292.743 529.777 293.21 529.283C293.69 528.79 293.93 528.117 293.93 527.263ZM303.244 523.543C303.644 522.93 304.144 522.45 304.744 522.103C305.344 521.743 306.011 521.563 306.744 521.563V525.183H305.804C304.951 525.183 304.311 525.37 303.884 525.743C303.457 526.103 303.244 526.743 303.244 527.663V532.843H299.824V521.683H303.244V523.543ZM307.699 527.243C307.699 526.097 307.912 525.09 308.339 524.223C308.779 523.357 309.372 522.69 310.119 522.223C310.865 521.757 311.699 521.523 312.619 521.523C313.352 521.523 314.019 521.677 314.619 521.983C315.232 522.29 315.712 522.703 316.059 523.223V518.043H319.479V532.843H316.059V531.243C315.739 531.777 315.279 532.203 314.679 532.523C314.092 532.843 313.405 533.003 312.619 533.003C311.699 533.003 310.865 532.77 310.119 532.303C309.372 531.823 308.779 531.15 308.339 530.283C307.912 529.403 307.699 528.39 307.699 527.243ZM316.059 527.263C316.059 526.41 315.819 525.737 315.339 525.243C314.872 524.75 314.299 524.503 313.619 524.503C312.939 524.503 312.359 524.75 311.879 525.243C311.412 525.723 311.179 526.39 311.179 527.243C311.179 528.097 311.412 528.777 311.879 529.283C312.359 529.777 312.939 530.023 313.619 530.023C314.299 530.023 314.872 529.777 315.339 529.283C315.819 528.79 316.059 528.117 316.059 527.263ZM332.473 527.083C332.473 527.403 332.453 527.737 332.413 528.083H324.673C324.726 528.777 324.946 529.31 325.333 529.683C325.733 530.043 326.22 530.223 326.793 530.223C327.646 530.223 328.24 529.863 328.573 529.143H332.213C332.026 529.877 331.686 530.537 331.193 531.123C330.713 531.71 330.106 532.17 329.373 532.503C328.64 532.837 327.82 533.003 326.913 533.003C325.82 533.003 324.846 532.77 323.993 532.303C323.14 531.837 322.473 531.17 321.993 530.303C321.513 529.437 321.273 528.423 321.273 527.263C321.273 526.103 321.506 525.09 321.973 524.223C322.453 523.357 323.12 522.69 323.973 522.223C324.826 521.757 325.806 521.523 326.913 521.523C327.993 521.523 328.953 521.75 329.793 522.203C330.633 522.657 331.286 523.303 331.753 524.143C332.233 524.983 332.473 525.963 332.473 527.083ZM328.973 526.183C328.973 525.597 328.773 525.13 328.373 524.783C327.973 524.437 327.473 524.263 326.873 524.263C326.3 524.263 325.813 524.43 325.413 524.763C325.026 525.097 324.786 525.57 324.693 526.183H328.973ZM337.697 523.543C338.097 522.93 338.597 522.45 339.197 522.103C339.797 521.743 340.464 521.563 341.197 521.563V525.183H340.257C339.404 525.183 338.764 525.37 338.337 525.743C337.91 526.103 337.697 526.743 337.697 527.663V532.843H334.277V521.683H337.697V523.543ZM94.5334 548.803V551.543H90.8134V562.843H87.3934V551.543H83.6734V548.803H94.5334ZM106.77 557.083C106.77 557.403 106.75 557.737 106.71 558.083H98.9698C99.0231 558.777 99.2431 559.31 99.6298 559.683C100.03 560.043 100.516 560.223 101.09 560.223C101.943 560.223 102.536 559.863 102.87 559.143H106.51C106.323 559.877 105.983 560.537 105.49 561.123C105.01 561.71 104.403 562.17 103.67 562.503C102.936 562.837 102.116 563.003 101.21 563.003C100.116 563.003 99.1431 562.77 98.2898 562.303C97.4364 561.837 96.7698 561.17 96.2898 560.303C95.8098 559.437 95.5698 558.423 95.5698 557.263C95.5698 556.103 95.8031 555.09 96.2698 554.223C96.7498 553.357 97.4164 552.69 98.2698 552.223C99.1231 551.757 100.103 551.523 101.21 551.523C102.29 551.523 103.25 551.75 104.09 552.203C104.93 552.657 105.583 553.303 106.05 554.143C106.53 554.983 106.77 555.963 106.77 557.083ZM103.27 556.183C103.27 555.597 103.07 555.13 102.67 554.783C102.27 554.437 101.77 554.263 101.17 554.263C100.596 554.263 100.11 554.43 99.7098 554.763C99.3231 555.097 99.0831 555.57 98.9898 556.183H103.27ZM107.894 557.263C107.894 556.103 108.127 555.09 108.594 554.223C109.074 553.357 109.734 552.69 110.574 552.223C111.427 551.757 112.401 551.523 113.494 551.523C114.894 551.523 116.061 551.89 116.994 552.623C117.941 553.357 118.561 554.39 118.854 555.723H115.214C114.907 554.87 114.314 554.443 113.434 554.443C112.807 554.443 112.307 554.69 111.934 555.183C111.561 555.663 111.374 556.357 111.374 557.263C111.374 558.17 111.561 558.87 111.934 559.363C112.307 559.843 112.807 560.083 113.434 560.083C114.314 560.083 114.907 559.657 115.214 558.803H118.854C118.561 560.11 117.941 561.137 116.994 561.883C116.047 562.63 114.881 563.003 113.494 563.003C112.401 563.003 111.427 562.77 110.574 562.303C109.734 561.837 109.074 561.17 108.594 560.303C108.127 559.437 107.894 558.423 107.894 557.263ZM127.543 551.563C128.823 551.563 129.85 551.99 130.623 552.843C131.397 553.683 131.783 554.843 131.783 556.323V562.843H128.383V556.783C128.383 556.037 128.19 555.457 127.803 555.043C127.417 554.63 126.897 554.423 126.243 554.423C125.59 554.423 125.07 554.63 124.683 555.043C124.297 555.457 124.103 556.037 124.103 556.783V562.843H120.683V548.043H124.103V553.183C124.45 552.69 124.923 552.297 125.523 552.003C126.123 551.71 126.797 551.563 127.543 551.563ZM142.76 554.403V557.243H133.96V554.403H142.76ZM155.861 548.803V551.543H152.141V562.843H148.721V551.543H145.001V548.803H155.861ZM159.298 550.523C158.698 550.523 158.205 550.35 157.818 550.003C157.445 549.643 157.258 549.203 157.258 548.683C157.258 548.15 157.445 547.71 157.818 547.363C158.205 547.003 158.698 546.823 159.298 546.823C159.885 546.823 160.365 547.003 160.738 547.363C161.125 547.71 161.318 548.15 161.318 548.683C161.318 549.203 161.125 549.643 160.738 550.003C160.365 550.35 159.885 550.523 159.298 550.523ZM160.998 551.683V562.843H157.578V551.683H160.998ZM169.696 559.943V562.843H167.956C166.716 562.843 165.75 562.543 165.056 561.943C164.363 561.33 164.016 560.337 164.016 558.963V554.523H162.656V551.683H164.016V548.963H167.436V551.683H169.676V554.523H167.436V559.003C167.436 559.337 167.516 559.577 167.676 559.723C167.836 559.87 168.103 559.943 168.476 559.943H169.696ZM170.921 557.243C170.921 556.097 171.135 555.09 171.561 554.223C172.001 553.357 172.595 552.69 173.341 552.223C174.088 551.757 174.921 551.523 175.841 551.523C176.628 551.523 177.315 551.683 177.901 552.003C178.501 552.323 178.961 552.743 179.281 553.263V551.683H182.701V562.843H179.281V561.263C178.948 561.783 178.481 562.203 177.881 562.523C177.295 562.843 176.608 563.003 175.821 563.003C174.915 563.003 174.088 562.77 173.341 562.303C172.595 561.823 172.001 561.15 171.561 560.283C171.135 559.403 170.921 558.39 170.921 557.243ZM179.281 557.263C179.281 556.41 179.041 555.737 178.561 555.243C178.095 554.75 177.521 554.503 176.841 554.503C176.161 554.503 175.581 554.75 175.101 555.243C174.635 555.723 174.401 556.39 174.401 557.243C174.401 558.097 174.635 558.777 175.101 559.283C175.581 559.777 176.161 560.023 176.841 560.023C177.521 560.023 178.095 559.777 178.561 559.283C179.041 558.79 179.281 558.117 179.281 557.263ZM191.976 551.563C193.282 551.563 194.322 551.99 195.096 552.843C195.882 553.683 196.276 554.843 196.276 556.323V562.843H192.876V556.783C192.876 556.037 192.682 555.457 192.296 555.043C191.909 554.63 191.389 554.423 190.736 554.423C190.082 554.423 189.562 554.63 189.176 555.043C188.789 555.457 188.596 556.037 188.596 556.783V562.843H185.176V551.683H188.596V553.163C188.942 552.67 189.409 552.283 189.996 552.003C190.582 551.71 191.242 551.563 191.976 551.563ZM203.192 563.003C202.219 563.003 201.352 562.837 200.592 562.503C199.832 562.17 199.232 561.717 198.792 561.143C198.352 560.557 198.105 559.903 198.052 559.183H201.432C201.472 559.57 201.652 559.883 201.972 560.123C202.292 560.363 202.685 560.483 203.152 560.483C203.579 560.483 203.905 560.403 204.132 560.243C204.372 560.07 204.492 559.85 204.492 559.583C204.492 559.263 204.325 559.03 203.992 558.883C203.659 558.723 203.119 558.55 202.372 558.363C201.572 558.177 200.905 557.983 200.372 557.783C199.839 557.57 199.379 557.243 198.992 556.803C198.605 556.35 198.412 555.743 198.412 554.983C198.412 554.343 198.585 553.763 198.932 553.243C199.292 552.71 199.812 552.29 200.492 551.983C201.185 551.677 202.005 551.523 202.952 551.523C204.352 551.523 205.452 551.87 206.252 552.563C207.065 553.257 207.532 554.177 207.652 555.323H204.492C204.439 554.937 204.265 554.63 203.972 554.403C203.692 554.177 203.319 554.063 202.852 554.063C202.452 554.063 202.145 554.143 201.932 554.303C201.719 554.45 201.612 554.657 201.612 554.923C201.612 555.243 201.779 555.483 202.112 555.643C202.459 555.803 202.992 555.963 203.712 556.123C204.539 556.337 205.212 556.55 205.732 556.763C206.252 556.963 206.705 557.297 207.092 557.763C207.492 558.217 207.699 558.83 207.712 559.603C207.712 560.257 207.525 560.843 207.152 561.363C206.792 561.87 206.265 562.27 205.572 562.563C204.892 562.857 204.099 563.003 203.192 563.003Z" fill="white"/>
<g clip-path="url(#clip0_956_161)">
<path d="M19.5586 430.827C19.5586 431.231 19.8825 431.555 20.2859 431.555H466.037C466.441 431.555 466.765 431.231 466.765 430.827C466.765 430.423 466.441 430.099 466.037 430.099H20.2859C19.8825 430.099 19.5586 430.423 19.5586 430.827Z" fill="#3F3D58"/>
<path d="M288.865 167.498L304.518 172.647V150.099H290.314L288.865 167.498Z" fill="#F8A8AB"/>
<path d="M302.581 156.337C311.195 156.337 318.179 149.349 318.179 140.729C318.179 132.11 311.195 125.122 302.581 125.122C293.966 125.122 286.982 132.11 286.982 140.729C286.982 149.349 293.966 156.337 302.581 156.337Z" fill="#F8A8AB"/>
<path d="M298.608 141.953L300.759 144.564L304.646 137.751C304.646 137.751 309.609 138.008 309.609 134.32C309.609 130.632 314.163 130.529 314.163 130.529C314.163 130.529 320.611 119.263 307.256 122.23C307.256 122.23 297.99 115.881 293.388 121.306C293.388 121.306 279.263 128.425 283.303 140.815L290.02 153.591L291.542 150.698C291.542 150.698 290.619 138.558 298.608 141.94L298.608 141.953Z" fill="#2F2E43"/>
<path d="M296.97 401.521H284.171V419.69H296.97V401.521Z" fill="#F8A8AB"/>
<path d="M295.551 430.099C293.363 430.295 282.41 431.163 281.86 428.65C281.359 426.344 282.098 423.935 282.202 423.604C283.254 413.122 283.645 413.006 283.883 412.939C284.256 412.829 285.344 413.348 287.11 414.486L287.22 414.559L287.245 414.688C287.275 414.853 288.058 418.7 291.768 418.106C294.31 417.703 295.136 417.14 295.398 416.865C295.185 416.767 294.916 416.596 294.726 416.302C294.451 415.874 294.402 415.324 294.586 414.663C295.062 412.92 296.493 410.346 296.554 410.242L296.719 409.948L311.266 419.77L320.25 422.338C320.929 422.534 321.473 423.017 321.748 423.665C322.127 424.571 321.895 425.623 321.161 426.283C319.529 427.751 316.29 430.264 312.885 430.576C311.981 430.662 310.783 430.692 309.438 430.692C303.821 430.692 295.618 430.111 295.557 430.099L295.551 430.099Z" fill="#2F2E43"/>
<path d="M313.313 244.874L279.739 243.155C279.739 243.155 274.593 262.677 281.096 283.017L281.879 405.508H300.851L318.735 279.152L313.313 244.874Z" fill="#2F2E43"/>
<path d="M307.654 163.162L289.226 153.377C289.226 153.377 269.368 182.414 272.112 198.144C274.862 213.873 279.74 243.155 279.74 243.155L320.392 244.874L313.295 187.209L307.654 163.162Z" fill="#E2E3E4"/>
<path d="M306.076 401.521H293.277V419.69H306.076V401.521Z" fill="#F8A8AB"/>
<path d="M304.659 430.099C302.471 430.295 291.518 431.163 290.967 428.65C290.466 426.344 291.206 423.935 291.31 423.604C292.361 413.122 292.752 413.006 292.991 412.939C293.363 412.829 294.451 413.348 296.218 414.486L296.328 414.559L296.352 414.688C296.383 414.853 297.165 418.7 300.875 418.106C303.418 417.703 304.243 417.14 304.506 416.865C304.292 416.767 304.023 416.596 303.834 416.302C303.558 415.874 303.51 415.324 303.693 414.663C304.17 412.92 305.6 410.346 305.661 410.242L305.826 409.948L320.373 419.77L329.358 422.338C330.036 422.534 330.58 423.017 330.855 423.665C331.234 424.571 331.002 425.623 330.268 426.283C328.637 427.751 325.397 430.264 321.993 430.576C321.088 430.662 319.89 430.692 318.545 430.692C312.928 430.692 304.726 430.111 304.665 430.099L304.659 430.099Z" fill="#2F2E43"/>
<path d="M320.391 244.874L279.739 243.155C279.739 243.155 274.593 262.677 281.096 283.017L288.956 405.508H307.928L325.813 279.152L320.391 244.874Z" fill="#2F2E43"/>
<path d="M316.149 324.879C313.307 324.879 310.208 324.182 307.146 323.497C304.878 322.989 302.88 322.861 301.278 322.763C298.846 322.61 296.92 322.488 295.851 321.063C294.793 319.656 294.793 317.265 295.851 312.55C297.256 306.287 300.386 296.282 304.212 288.05C309.157 277.433 313.906 272.547 318.337 273.544C324.272 274.877 326.637 284.79 327.524 290.576C328.758 298.655 328.648 308.256 327.255 314.47C325.409 322.696 321.173 324.873 316.143 324.873L316.149 324.879ZM317.231 275.262C313.973 275.262 309.976 280.02 305.881 288.827C302.109 296.93 299.029 306.783 297.642 312.953C296.755 316.916 296.657 319.075 297.318 319.962C297.88 320.708 299.353 320.806 301.388 320.928C303.057 321.032 305.135 321.16 307.543 321.705C317.115 323.851 323.099 324.634 325.464 314.072C328 302.758 326.069 277.164 317.934 275.336C317.702 275.281 317.463 275.256 317.225 275.256L317.231 275.262Z" fill="#DFDFE0"/>
<path d="M354.857 400.927L263.695 401.527L249.533 395.007L257.785 310.788L266.085 311.21L351.49 315.559L354.857 400.927Z" fill="#717FE0"/>
<path opacity="0.2" d="M263.695 401.527L249.533 395.007L257.785 310.788L266.085 311.21L263.695 401.527Z" fill="#272223"/>
<path d="M317.524 309.345C315.831 309.345 313.979 308.929 312.158 308.519C310.807 308.214 309.615 308.14 308.656 308.079C307.207 307.987 306.058 307.914 305.422 307.064C304.793 306.226 304.793 304.801 305.422 301.988C306.26 298.251 308.124 292.288 310.41 287.384C313.356 281.054 316.192 278.143 318.832 278.736C322.371 279.531 323.783 285.439 324.309 288.894C325.042 293.713 324.981 299.438 324.15 303.138C323.05 308.042 320.525 309.339 317.524 309.339L317.524 309.345ZM318.172 279.763C316.229 279.763 313.845 282.601 311.406 287.855C309.157 292.686 307.317 298.557 306.498 302.239C305.966 304.599 305.911 305.89 306.309 306.416C306.645 306.862 307.519 306.917 308.735 306.99C309.731 307.052 310.966 307.131 312.402 307.455C318.105 308.733 321.675 309.198 323.086 302.905C324.596 296.16 323.447 280.901 318.6 279.812C318.46 279.782 318.319 279.763 318.178 279.763H318.172Z" fill="#DFDFE0"/>
<path d="M340.598 354.693L286.249 355.048L277.802 351.164L282.722 300.948L287.673 301.199L338.593 303.792L340.598 354.693Z" fill="#E2E3E4"/>
<path opacity="0.2" d="M286.249 355.048L277.802 351.164L282.722 300.948L287.673 301.199L286.249 355.048Z" fill="#272223"/>
<path d="M320.703 275.452C321.613 279.929 319.945 284.02 316.987 284.589C314.028 285.158 310.893 281.984 309.988 277.507C309.603 275.721 309.664 273.874 310.165 272.113L306.565 253.087L315.868 251.613L318.429 270.523C319.584 271.966 320.361 273.654 320.703 275.452Z" fill="#F8A8AB"/>
<path d="M284.213 162.807C284.213 162.807 297.819 161.082 299.444 165.149C301.07 169.216 320.177 266.021 320.177 266.021H307.573L284.213 162.807Z" fill="#E2E3E4"/>
<path d="M189.683 183.527L176.017 188.022V168.342H188.418L189.683 183.527Z" fill="#F8A8AB"/>
<path d="M177.71 173.791C185.231 173.791 191.327 167.69 191.327 160.165C191.327 152.64 185.231 146.539 177.71 146.539C170.189 146.539 164.092 152.64 164.092 160.165C164.092 167.69 170.189 173.791 177.71 173.791Z" fill="#F8A8AB"/>
<path d="M181.45 158.813C179.17 158.746 177.673 156.44 176.787 154.337C175.9 152.233 174.99 149.817 172.875 148.949C171.145 148.239 168.095 153.04 166.732 151.762C165.308 150.429 166.695 143.585 168.205 142.356C169.715 141.127 171.781 140.888 173.724 140.796C178.467 140.576 183.241 140.962 187.892 141.934C190.771 142.533 193.729 143.438 195.807 145.518C198.436 148.16 199.108 152.141 199.298 155.866C199.493 159.676 199.273 163.663 197.421 166.996C195.569 170.329 191.694 172.788 187.978 171.938C187.605 169.919 187.984 167.846 188.131 165.791C188.271 163.743 188.125 161.529 186.872 159.896C185.619 158.263 182.948 157.615 181.493 159.064" fill="#2F2E43"/>
<path d="M198.203 163.535C199.567 162.538 201.198 161.7 202.873 161.908C204.682 162.128 206.217 163.62 206.681 165.388C207.146 167.155 206.626 169.1 205.501 170.543C204.383 171.987 202.714 172.941 200.954 173.418C199.933 173.693 198.815 173.809 197.843 173.393C196.413 172.775 195.636 170.947 196.199 169.491" fill="#2F2E43"/>
<path d="M185.173 402.53H172.374V420.699H185.173V402.53Z" fill="#F8A8AB"/>
<path d="M159.905 431.696C158.56 431.696 157.362 431.665 156.457 431.579C153.059 431.267 149.813 428.754 148.181 427.286C147.448 426.626 147.216 425.574 147.595 424.669C147.87 424.02 148.414 423.531 149.092 423.342L158.077 420.773L172.624 410.951L172.789 411.245C172.85 411.355 174.28 413.93 174.757 415.666C174.94 416.327 174.891 416.877 174.616 417.305C174.427 417.599 174.158 417.77 173.944 417.868C174.207 418.143 175.032 418.706 177.575 419.11C181.285 419.697 182.067 415.85 182.098 415.691L182.122 415.562L182.232 415.489C183.999 414.352 185.086 413.832 185.459 413.942C185.692 414.009 186.083 414.131 187.14 424.608C187.244 424.938 187.984 427.347 187.482 429.653C186.938 432.16 175.986 431.298 173.791 431.102C173.73 431.109 165.528 431.696 159.911 431.696L159.905 431.696Z" fill="#2F2E43"/>
<path d="M221.614 388.248L210.754 395.025L220.363 410.442L231.223 403.665L221.614 388.248Z" fill="#F8A8AB"/>
<path d="M207.188 429.207C205.684 429.207 204.303 429.023 203.319 428.852C202.353 428.681 201.595 427.91 201.437 426.944C201.327 426.247 201.528 425.543 202.005 425.023L208.27 418.088L215.421 402.053L215.714 402.212C215.825 402.273 218.398 403.698 219.724 404.921C220.231 405.386 220.482 405.881 220.47 406.389C220.464 406.744 220.329 407.025 220.195 407.227C220.561 407.325 221.558 407.361 223.929 406.358C227.389 404.897 226.02 401.215 225.958 401.062L225.91 400.94L225.965 400.824C226.863 398.922 227.505 397.906 227.884 397.802C228.122 397.735 228.513 397.631 234.949 405.967C235.212 406.187 237.113 407.844 237.908 410.064C238.769 412.48 229.021 417.55 227.059 418.541C226.997 418.59 216.796 426.008 212.603 428.118C210.941 428.956 208.973 429.213 207.182 429.213L207.188 429.207Z" fill="#2F2E43"/>
<path d="M194.597 250.585H158.761L155.51 283.94L169.739 407.184H188.032L180.716 336.003L210.391 400.267L226.649 388.879L203.478 328.885C203.478 328.885 211.754 276.62 205.25 263.6C198.747 250.579 194.597 250.585 194.597 250.585Z" fill="#2F2E43"/>
<path d="M212.42 252.616H155.51L172.581 178.995H197.378L212.42 252.616Z" fill="#717FE0"/>
<path d="M141.373 177.546C140.462 173.069 142.131 168.978 145.089 168.409C148.047 167.84 151.183 171.014 152.087 175.491C152.472 177.277 152.411 179.124 151.91 180.885L155.51 199.911L146.207 201.385L143.647 182.475C142.491 181.032 141.715 179.344 141.373 177.546Z" fill="#F8A8AB"/>
<path d="M196.773 178.995H174.904L160.161 208.497L154.599 186.389L142.381 187.686C142.381 187.686 145.272 230.881 157.906 229.419C170.539 227.958 200.006 189.043 196.767 178.989L196.773 178.995Z" fill="#717FE0"/>
<path d="M217.426 318.928C215.733 318.928 213.881 318.512 212.059 318.103C210.709 317.797 209.517 317.723 208.557 317.662C207.108 317.571 205.959 317.497 205.324 316.647C204.694 315.809 204.694 314.384 205.324 311.571C206.161 307.834 208.025 301.872 210.311 296.967C213.257 290.637 216.093 287.726 218.734 288.319C222.273 289.114 223.685 295.022 224.21 298.477C224.944 303.297 224.883 309.021 224.051 312.721C222.951 317.626 220.427 318.922 217.426 318.922L217.426 318.928ZM218.074 289.347C216.13 289.347 213.746 292.184 211.308 297.438C209.058 302.269 207.218 308.14 206.399 311.822C205.868 314.183 205.813 315.473 206.21 315.999C206.546 316.445 207.42 316.5 208.637 316.574C209.633 316.635 210.867 316.714 212.304 317.039C218.006 318.317 221.576 318.782 222.988 312.488C224.497 305.743 223.348 290.484 218.501 289.396C218.361 289.365 218.22 289.347 218.08 289.347H218.074Z" fill="#DFDFE0"/>
<path d="M240.505 364.27L186.156 364.625L177.709 360.741L182.629 310.525L187.58 310.776L238.5 313.369L240.505 364.27Z" fill="#E2E3E4"/>
<path opacity="0.2" d="M186.156 364.625L177.709 360.741L182.629 310.525L187.58 310.776L186.156 364.625Z" fill="#272223"/>
<path d="M221.191 291.188C222.102 295.664 220.433 299.756 217.475 300.324C214.517 300.893 211.381 297.719 210.477 293.242C210.091 291.457 210.153 289.61 210.654 287.848L207.054 268.823L216.356 267.349L218.917 286.258C220.073 287.702 220.849 289.39 221.191 291.188Z" fill="#F8A8AB"/>
<path d="M184.305 178.995C184.305 178.995 196.731 178.47 197.379 178.995C200.771 181.766 220.666 281.763 220.666 281.763H208.063L184.305 178.995Z" fill="#717FE0"/>
<ellipse cx="454.765" cy="131.613" rx="37" ry="36.5" fill="#D9D9D9" fill-opacity="0.3"/>
<ellipse cx="70.7646" cy="405.613" rx="37" ry="36.5" fill="#D9D9D9" fill-opacity="0.3"/>
<ellipse cx="454.765" cy="405.613" rx="37" ry="36.5" fill="#D9D9D9" fill-opacity="0.3"/>
<ellipse cx="93.7646" cy="137.613" rx="37" ry="36.5" fill="#D9D9D9" fill-opacity="0.3"/>
</g>
<rect x="2.08008" width="74.8743" height="46.34" fill="#D9D9D9" fill-opacity="0.3"/>
<rect x="446.126" width="74.8743" height="46.34" fill="#D9D9D9" fill-opacity="0.3"/>
<rect x="446.126" y="615.66" width="74.8743" height="46.34" fill="#D9D9D9" fill-opacity="0.3"/>
<rect y="615.66" width="74.8743" height="46.34" fill="#D9D9D9" fill-opacity="0.3"/>
<defs>
<clipPath id="clip0_956_161">
<rect width="406.609" height="333.207" fill="white" transform="translate(58 128)"/>
</clipPath>
</defs>
</svg>
