<svg width="96" height="96" viewBox="0 0 96 96" fill="none" xmlns="http://www.w3.org/2000/svg">
<g clip-path="url(#clip0_482_61)">
<path d="M90.92 90.92L11.08 11.08L8 7.99996L5.08 5.07996L0 10.16L17.56 27.72L26.4 46.36L21 56.16C20.36 57.28 20 58.6 20 60C20 64.4 23.6 68 28 68H57.84L63.36 73.52C61.36 74.96 60.04 77.32 60.04 80C60.04 84.4 63.6 88 68 88C70.68 88 73.04 86.68 74.48 84.64L85.84 96L90.92 90.92ZM29.68 60C29.12 60 28.68 59.56 28.68 59L28.8 58.52L32.4 52H41.84L49.84 60H29.68ZM62.2 52C65.2 52 67.84 50.36 69.2 47.88L83.52 21.92C83.84 21.36 84 20.68 84 20C84 17.8 82.2 16 80 16H26.16L62.2 52ZM28 72C23.6 72 20.04 75.6 20.04 80C20.04 84.4 23.6 88 28 88C32.4 88 36 84.4 36 80C36 75.6 32.4 72 28 72Z" fill="#5686E1"/>
</g>
<defs>
<clipPath id="clip0_482_61">
<rect width="96" height="96" fill="white"/>
</clipPath>
</defs>
</svg>
