<svg xmlns="http://www.w3.org/2000/svg" width="387" height="467" fill="none" viewBox="0 0 387 467">
  <g clip-path="url(#a)">
    <path fill="#E6E6E6" d="M149.889 383.296c-7.701-8.042-18.86-12.654-30.616-12.654l-.454.002a43.301 43.301 0 0 1-22.038-6.027l-.696-.411.56-.584a43.172 43.172 0 0 0 7.515-10.773 12.86 12.86 0 0 1-4.826 2.872 12.72 12.72 0 0 1-5.573.529 13.093 13.093 0 0 1-5.555-2.016 13.28 13.28 0 0 1-4.131-4.266c-4.109-6.751-9.007-16.329-9.007-23.627a44.876 44.876 0 0 1 3.745-17.908 44.395 44.395 0 0 1 10.561-14.857 27.633 27.633 0 0 0 6.68-9.335 27.945 27.945 0 0 0 2.34-11.282l-.002-.552c0-5.116.617-10.212 1.839-15.175l.124-.502.509.018c3.284.113 6.57-.165 9.79-.83a32.708 32.708 0 0 1-8.78-2.365l-.548-.224.186-.569c12.817-8.035 41.749-3.874 58.542-42.779 13.617-31.546 61.661 28.004 61.661 62.426 0 3.512-3.432 8.153-.863 10.475 27.78 25.095 8.612 41.209 2.569 57.425-1.434 3.847 1.675 8.07 1.675 12.233 0 .706-.017 1.435-.052 2.166l-.054 1.125-.926-.624a30.77 30.77 0 0 1-5.067-4.208 27.369 27.369 0 0 1 2.197 11.784 27.318 27.318 0 0 1-3.045 11.588c-2.911 5.564-5.727 9.547-8.371 11.839-8.467 7.337-19.383 11.122-30.516 10.58-11.132-.541-21.639-5.368-29.373-13.494Z"/>
    <path fill="#3F3D56" d="M196.397 467c.189 0 .372-.07.515-.195a.803.803 0 0 0 .263-.489c.034-.238 3.308-24.15.367-55.93-2.716-29.349-11.437-71.623-37.563-106.341a.792.792 0 0 0-.52-.308.775.775 0 0 0-.583.156.8.8 0 0 0-.284.838.81.81 0 0 0 .136.28c25.9 34.418 34.551 76.382 37.247 105.524 2.924 31.595-.325 55.32-.358 55.556a.805.805 0 0 0 .453.837.787.787 0 0 0 .327.072Z"/>
    <path fill="#3F3D56" d="M175.077 353.017a.783.783 0 0 0 .749-.55.813.813 0 0 0 0-.493.79.79 0 0 0-.286-.398 107.922 107.922 0 0 0-23.94-12.341c-13.209-4.896-33.294-9.335-53.972-2.672a.799.799 0 0 0 .172 1.554.772.772 0 0 0 .305-.035c20.254-6.527 39.976-2.162 52.954 2.65a106.119 106.119 0 0 1 23.556 12.133.777.777 0 0 0 .462.152Zm36.012-90.82a.802.802 0 0 0-.488-.796.779.779 0 0 0-.899.224 110.075 110.075 0 0 0-13.879 23.291c-5.775 12.987-11.594 32.953-6.519 54.316a.8.8 0 0 0 .642.602.777.777 0 0 0 .586-.143.789.789 0 0 0 .315-.521.809.809 0 0 0-.013-.31c-4.97-20.926.75-40.529 6.424-53.29a108.3 108.3 0 0 1 13.647-22.918.794.794 0 0 0 .184-.455Z"/>
    <path fill="#F0F0F0" d="M362.855 466.156h-62.637l-.269-.494a69.07 69.07 0 0 1-2.296-4.631c-6.452-13.986-9.179-29.983-11.586-44.096l-1.812-10.639a6.645 6.645 0 0 1 .475-3.806 6.542 6.542 0 0 1 2.494-2.889 6.427 6.427 0 0 1 7.243.269c9.519 7.014 19.041 14.021 28.568 21.021 3.607 2.658 7.726 5.734 11.672 9.058.38-1.872.778-3.75 1.177-5.601a6.588 6.588 0 0 1 1.852-3.35 6.464 6.464 0 0 1 3.385-1.73 6.416 6.416 0 0 1 3.761.479 6.522 6.522 0 0 1 2.856 2.525l7.328 11.923c5.346 8.706 10.063 17.286 9.102 26.54.005.112-.004.225-.025.335a21.176 21.176 0 0 1-1.063 4.456l-.225.63Z"/>
    <path fill="#A0616A" d="m333.673 216.809-12.088-45.306a7.564 7.564 0 0 0-3.457-4.551 7.398 7.398 0 0 0-8.328.551 7.534 7.534 0 0 0-1.968 2.314 7.657 7.657 0 0 0-.601 5.952l13.982 46.672 7.315 28.722a6.605 6.605 0 0 0-2.26 3.253 6.688 6.688 0 0 0-.008 3.978 6.611 6.611 0 0 0 2.249 3.262 6.46 6.46 0 0 0 7.485.338 6.59 6.59 0 0 0 2.526-3.046 6.693 6.693 0 0 0 .343-3.963 6.634 6.634 0 0 0-1.965-3.444l-3.225-34.732Zm-101.721-9.758 36.729-28.622a7.593 7.593 0 0 0 2.833-4.974 7.644 7.644 0 0 0-1.426-5.558 7.512 7.512 0 0 0-2.259-2.024 7.41 7.41 0 0 0-2.864-.958 7.408 7.408 0 0 0-5.661 1.712l-37.253 30.916-23.418 17.82a6.459 6.459 0 0 0-7.465.641 6.617 6.617 0 0 0-2.118 3.35 6.696 6.696 0 0 0 .164 3.974 6.597 6.597 0 0 0 2.387 3.159 6.479 6.479 0 0 0 3.745 1.201 6.476 6.476 0 0 0 3.748-1.194 6.596 6.596 0 0 0 2.392-3.155l30.466-16.288Zm29.936 6.58-1.619 36.614 50.834-11.188c-4.327-14.712-7.269-17.221-4.018-27.46l-45.197 2.034Z"/>
    <path fill="#E6E6E6" d="M293.145 146.509h-16.939l-7.274 12.604-3.466-.193a12.339 12.339 0 0 0-4.986.753 12.446 12.446 0 0 0-4.285 2.688 12.653 12.653 0 0 0-2.887 4.184 12.785 12.785 0 0 0-1.017 5l4.27 6.702s-7.637 13.478 3.365 20.109c0 0-1.963 12.493 0 12.359 1.962-.135 6.482-2.677 1.962-.135-4.52 2.543-4.183 2.884-3.598 3.476l.585.592 47.525 8.081s1.39-9.329 1.54-10.993c.15-1.664-.855 2.404.15-1.664 1.004-4.068 2.511-2.543 1.004-4.068-1.506-1.526 9.762-20.426 5.132-27.757l7.423-7.331c0-7.032-11.154-12.733-18.099-12.733h-.889l-9.516-11.674Z"/>
    <path fill="#A0616A" d="M252.334 452.041h-6.856l-3.261-26.776 10.118.001-.001 26.775Z"/>
    <path fill="#2F2E41" d="M231.642 462.284c.003.778.309 1.523.852 2.073.542.55 1.277.862 2.045.867h12.906l.4-.839 1.825-3.814.707 3.814.156.839h4.868l-.069-.845-1.298-15.762-1.698-.105-7.337-.44-1.802-.112v4.706c-1.368 1.473-12.1 7.042-11.555 9.618Z"/>
    <path fill="#A0616A" d="m354.222 433.858-5.766 3.756-17.05-20.732 8.51-5.543 14.306 22.519Z"/>
    <path fill="#2F2E41" d="M342.292 453.808a2.92 2.92 0 0 0 1.824 1.277 2.884 2.884 0 0 0 2.184-.392l10.854-7.07-.112-.925-.503-4.207 2.632 2.82.58.62 4.094-2.667-.51-.672-9.513-12.545-1.484.842-6.406 3.649-1.575.893 2.515 3.958c-.364 1.988-6.414 12.551-4.58 14.419Z"/>
    <path fill="#CACACA" d="m386.203 466.646-212.285.209a.795.795 0 0 1-.564-.239.815.815 0 0 1 .564-1.384l212.285-.21a.802.802 0 0 1 .564.24.818.818 0 0 1 0 1.145.797.797 0 0 1-.564.239Z"/>
    <path fill="#2F2E41" d="M310.306 234.921s-32.494 17.404-49.681 5.53c0 0-3.759 18.438-5.266 19.964-1.506 1.525-3.907 2.19-2.204 3.892 1.702 1.701 2.65 4-.586 6.919-3.236 2.919-6.463 1.993-3.343 4.998 3.12 3.006-9.435 76.741-9.435 76.741s2.009 68.57 0 70.644c-2.009 2.074-4.694 2.538-2.096 5.103 2.598 2.564 2.598.575 2.598 4.112v3.537l1.189 3.516h16.306s3.935-4.629 0-8.649 1.197-5.12 2.398-8.892c1.2-3.773 3.208.296 1.2-3.773-2.009-4.068-2.974-3.294-2.994-5.969-.019-2.675 29.61-107.43 29.61-107.43l3.589 57.98 43.166 63.498 12.706-9.649s-9.251-13.186-7.088-14.999c2.163-1.813-6.375-4.087-3.683-6.131 2.693-2.045-3.789-4.106-1.346-6.817 2.443-2.71-3.366-9.542-6.732-9.542-3.365 0-8.089-11.389-8.089-11.389l7.051-89.97-17.27-43.224ZM275.866 109.5c-.23.306-2.062.142-4.265-.184-4.356-.644-4.95.121-8.207 3.12-4.717 4.345-2.035 30.846-4.353 36.588l-.749.559a26.626 26.626 0 0 0 4.361-1.236c.801-2.557 1.603-5.122 2.411-7.677a22.71 22.71 0 0 1 1.424 6.2c1.122-.448 2.237-1.542 6.922-3.01 2.359-1.621 19.428-3.251 21.623-3.964 5.569-19.187-3.406-26.946-19.167-30.396Z"/>
    <path fill="#A0616A" d="M281.629 139.087c9.008 0 16.311-7.394 16.311-16.516 0-9.122-7.303-16.517-16.311-16.517-9.009 0-16.312 7.395-16.312 16.517s7.303 16.516 16.312 16.516Z"/>
    <path fill="#2F2E41" d="M291.898 108.045a7.244 7.244 0 0 1-2.607-.926 2.502 2.502 0 0 1-.93-1.015 2.536 2.536 0 0 1-.257-1.36c.201-1.173 1.512-1.874 2.686-1.803a7.254 7.254 0 0 1 3.237 1.327 5.107 5.107 0 0 0-1.359-3.025 4.995 4.995 0 0 0-2.915-1.528c1.544-.084 3.15-.158 4.578.443 1.428.602 2.618 2.091 2.36 3.635 2.401-.313 4.768 1.38 5.759 3.617.992 2.236.795 4.862.003 7.178a2.54 2.54 0 0 1-1.255 1.68c-.808.31-1.677-.211-2.377-.724a57.111 57.111 0 0 1-9.915-9.272"/>
    <path fill="#2F2E41" d="M299.01 140.13c-.691.33-.331 1.557-.869 2.106a2.207 2.207 0 0 1-.823.518 10.173 10.173 0 0 0-.698-2.979c-.071-.173-.186-.367-.367-.351-.211.025-.266.305-.271.513a8.72 8.72 0 0 1-.668 3.006l-.015.035-.467-.015c-1.165-.046-3.747-3.077-4.319-2.049 2.019-3.626 4.48-9.077 4.856-13.222a5.923 5.923 0 0 0-.186-2.593 2.293 2.293 0 0 0-.713-1.068 2.256 2.256 0 0 0-1.17-.509 1.434 1.434 0 0 0-1.134.479 1.466 1.466 0 0 0-.357 1.189l-.292-.04c-2.701-2.228-.371-6.098-3.515-7.628-1.065-.519-7.583 1.215-8.733.91a10.16 10.16 0 0 0-.728-3.575c-.071-.173-.186-.366-.367-.351-.211.026-.266.305-.271.514a8.72 8.72 0 0 1-.668 3.005 12.282 12.282 0 0 0-4.776.255c-1.376.366-2.682.996-4.063 1.332a5.197 5.197 0 0 1-4.128-.458c-1.752-1.19-2.059-3.824-1.185-5.766a11.335 11.335 0 0 1 2.521-3.296 83.543 83.543 0 0 1 2.426-2.257l2.199-1.999a27.032 27.032 0 0 1 2.943-2.431 14.43 14.43 0 0 1 5.463-2.187 14.35 14.35 0 0 1 5.872.184c2.31.559 5.398-.229 7.513.864 1.104.575 3.55 2.777 4.519 3.56 2.481 1.998.802.37 3.516 1.526 6.47 2.755 3.609 30.56-1.045 32.778Z"/>
    <path fill="#fff" d="M118.406 260.684c55.867 0 101.157-45.86 101.157-102.43 0-56.571-45.29-102.43-101.157-102.43-55.868 0-101.157 45.859-101.157 102.43 0 56.57 45.29 102.43 101.157 102.43Z"/>
    <path fill="#1F8A70" d="M118.406 261.706c-56.335 0-102.167-46.408-102.167-103.452S62.071 54.801 118.406 54.801s102.167 46.409 102.167 103.453c0 57.044-45.832 103.452-102.167 103.452Zm0-204.86c-55.221 0-100.147 45.492-100.147 101.408 0 55.916 44.926 101.407 100.147 101.407 55.221 0 100.147-45.491 100.147-101.407S173.627 56.846 118.406 56.846Z"/>
    <path fill="#1F8A70" d="M104.606 211.564c-1.747 0-3.47-.412-5.032-1.203a11.283 11.283 0 0 1-3.969-3.355l-27.597-37.26a11.462 11.462 0 0 1-1.898-4.009 11.533 11.533 0 0 1 1.218-8.633 11.356 11.356 0 0 1 2.93-3.31 11.216 11.216 0 0 1 3.96-1.922 11.115 11.115 0 0 1 4.383-.241 11.16 11.16 0 0 1 4.142 1.475 11.298 11.298 0 0 1 3.269 2.968l18.055 24.374 46.372-70.432a11.247 11.247 0 0 1 7.155-4.848 11.143 11.143 0 0 1 8.445 1.693 11.404 11.404 0 0 1 4.792 7.243 11.51 11.51 0 0 1-1.667 8.552L113.97 206.49a11.322 11.322 0 0 1-3.916 3.65 11.155 11.155 0 0 1-5.448 1.424Z"/>
    <path fill="#E6E6E6" d="M222.627 62.224c.282-1.959-1.744-3.878-4.524-4.288-2.78-.41-5.262.846-5.543 2.804-.282 1.959 1.744 3.878 4.524 4.288 2.78.41 5.262-.846 5.543-2.805Z"/>
    <path fill="#1F8A70" d="M255.727 58.953c.281-1.958-1.744-3.878-4.524-4.287-2.781-.41-5.262.846-5.544 2.804-.281 1.958 1.744 3.878 4.525 4.288 2.78.41 5.262-.846 5.543-2.805Z"/>
    <path fill="#FF6584" d="M213.563 35.09c.281-1.96-1.744-3.879-4.524-4.288-2.78-.41-5.262.846-5.544 2.804-.281 1.958 1.745 3.878 4.525 4.288 2.78.41 5.262-.846 5.543-2.805Z"/>
    <path fill="#E6E6E6" d="M199.181 23.975c.013-1.798-.977-3.263-2.212-3.273-1.236-.01-2.248 1.44-2.261 3.238-.014 1.798.977 3.263 2.212 3.273 1.235.01 2.247-1.44 2.261-3.238Z"/>
    <path fill="#1F8A70" d="M194.303 3.272c.013-1.797-.977-3.262-2.212-3.272-1.235-.01-2.247 1.44-2.261 3.238-.013 1.798.977 3.263 2.212 3.273 1.236.009 2.248-1.44 2.261-3.239Z"/>
    <path fill="#E6E6E6" d="M232.232 39.707c.014-1.798-.977-3.263-2.212-3.273-1.235-.01-2.247 1.44-2.261 3.239-.013 1.797.977 3.262 2.212 3.272 1.236.01 2.248-1.44 2.261-3.238Z"/>
    <path fill="#FF6584" d="M216.237 47.794c.013-1.798-.977-3.263-2.212-3.273-1.235-.01-2.248 1.44-2.261 3.238-.013 1.798.977 3.263 2.212 3.273 1.235.01 2.247-1.44 2.261-3.238Z"/>
    <path fill="#1F8A70" d="M238.503 62.74c.013-1.798-.977-3.263-2.212-3.272-1.235-.01-2.247 1.44-2.261 3.238-.013 1.798.977 3.263 2.212 3.272 1.235.01 2.247-1.44 2.261-3.238Z"/>
    <path fill="#E6E6E6" d="M32.797 304.883c.281-1.958-1.744-3.877-4.524-4.287-2.78-.41-5.262.846-5.544 2.804-.281 1.959 1.745 3.878 4.525 4.288 2.78.409 5.262-.846 5.543-2.805Z"/>
    <path fill="#1F8A70" d="M65.897 301.613c.282-1.958-1.744-3.878-4.524-4.288-2.78-.409-5.262.846-5.543 2.805-.282 1.958 1.744 3.878 4.524 4.287 2.78.41 5.262-.846 5.543-2.804Z"/>
    <path fill="#FF6584" d="M23.733 277.749c.282-1.958-1.744-3.878-4.524-4.287-2.78-.41-5.262.846-5.543 2.804-.282 1.958 1.744 3.878 4.524 4.287 2.78.41 5.262-.846 5.543-2.804Z"/>
    <path fill="#E6E6E6" d="M9.35 266.634c.014-1.797-.977-3.262-2.212-3.272-1.235-.009-2.247 1.44-2.26 3.238-.014 1.798.977 3.263 2.212 3.273 1.235.009 2.247-1.441 2.26-3.239Z"/>
    <path fill="#1F8A70" d="M4.473 245.932c.013-1.798-.977-3.263-2.212-3.272-1.235-.01-2.247 1.44-2.26 3.238-.014 1.798.976 3.263 2.211 3.272 1.235.01 2.247-1.44 2.26-3.238Z"/>
    <path fill="#E6E6E6" d="M42.402 282.367c.013-1.798-.977-3.263-2.212-3.273-1.235-.009-2.247 1.441-2.26 3.238-.014 1.798.976 3.263 2.211 3.273 1.235.009 2.248-1.441 2.261-3.238Z"/>
    <path fill="#FF6584" d="M26.407 290.454c.013-1.798-.977-3.263-2.212-3.273-1.236-.009-2.248 1.44-2.261 3.238-.014 1.798.977 3.263 2.212 3.273 1.235.009 2.247-1.441 2.26-3.238Z"/>
    <path fill="#1F8A70" d="M48.673 305.4c.013-1.798-.977-3.263-2.212-3.272-1.235-.01-2.247 1.44-2.261 3.238-.013 1.798.977 3.263 2.212 3.272 1.235.01 2.247-1.44 2.26-3.238Z"/>
  </g>
  <defs>
    <clipPath id="a">
      <path fill="#fff" d="M0 0h387v467H0z"/>
    </clipPath>
  </defs>
</svg>
