<svg width="147" height="46" viewBox="0 0 147 46" fill="none" xmlns="http://www.w3.org/2000/svg">
<path d="M9.56692 1.29626C8.71885 2.78458 8.4769 4.49589 8.57726 6.25751C8.70724 8.53915 9.46492 10.8822 10.3389 12.5553C10.5297 12.8638 10.6922 12.9347 10.8537 12.9182C11.0174 12.9016 11.1939 12.765 11.3346 12.5376C11.4755 12.3103 11.572 12.0022 11.5921 11.7085C11.6122 11.4148 11.5724 11.1386 11.4131 10.8519L11.3908 10.8118L11.3733 10.7662C10.4403 8.34446 9.22012 4.92102 9.56692 1.29626ZM15.2934 1.40345C15.5583 3.94102 15.0883 6.34201 14.5298 8.43558C14.9039 8.91218 15.287 9.48558 15.668 10.1184C15.999 8.86946 16.2444 7.54124 16.2979 6.24644C16.3694 4.51681 16.1288 2.86518 15.2934 1.40345ZM12.6706 8.26673C12.6584 8.26656 12.6462 8.2674 12.6341 8.26926C12.3969 8.30652 12.0259 8.5535 11.6122 8.99333C11.7489 9.37217 11.8869 9.73755 12.0219 10.0884C12.299 10.6145 12.4037 11.2573 12.3638 11.8413C12.3226 12.4436 12.1446 12.9863 11.8885 13.3997C11.6325 13.8131 11.2899 14.107 10.9033 14.1463C10.5167 14.1856 10.0997 13.9373 9.77208 13.3985L9.7622 13.3823L9.75319 13.3651C9.6213 13.1134 9.49475 12.8548 9.37374 12.5898C8.99245 13.4165 8.64273 14.3105 8.3545 15.2207C8.58144 15.1917 8.77569 15.1669 9.07025 15.1289C10.0339 15.0048 11.3109 14.8394 12.5853 14.6739C14.674 14.4027 16.0709 14.2206 16.7541 14.1315C16.2816 13.0929 15.752 12.059 15.2197 11.1565C14.6875 10.2543 14.1521 9.48182 13.6845 8.96728C13.2462 8.48487 12.8656 8.26844 12.6706 8.26673ZM12.0219 10.0884C12.0133 10.072 12.0049 10.0553 11.9959 10.0392L12.0358 10.1249C12.0312 10.1131 12.0265 10.1004 12.0219 10.0884ZM17.2608 15.3C16.8511 15.3534 14.9596 15.6001 12.6487 15.9003C11.4768 16.0526 10.305 16.2043 9.13309 16.3554C8.66472 16.4157 8.27894 16.4651 7.99451 16.5012C7.90709 16.8573 7.83037 17.2122 7.76766 17.5626L17.6574 16.3137C17.5303 15.9708 17.3981 15.6328 17.2608 15.3ZM12.335 18.1214L7.666 18.7945C6.53213 21.7379 5.36418 24.1812 2.73259 25.9014C2.72785 26.6457 2.82312 27.2752 3.00926 27.8422C3.82032 27.6172 4.57524 27.321 5.29599 26.9814C4.76392 27.7216 4.2127 28.4358 3.59049 29.0534C3.7706 29.3342 3.97675 29.6029 4.20515 29.8626C5.36245 28.9534 6.92662 27.5793 7.58812 26.8693L4.98258 30.6414C5.21366 30.8495 5.45738 31.0531 5.71101 31.2548C6.15739 30.9402 6.56667 30.5866 6.88754 30.1395C6.78731 30.7293 6.6343 31.2856 6.45122 31.8228C6.68893 31.9996 6.92703 32.1751 7.1655 32.3493C8.1854 31.2641 9.26821 29.9356 9.99319 28.9853C9.62402 30.1469 8.89377 31.7571 8.17944 33.1011C8.43679 33.296 8.69482 33.4959 8.95156 33.7037C10.1384 32.0952 10.8222 31.0606 11.5839 30.3607C12.2887 29.7129 13.0879 29.3659 14.3738 29.0375C13.0194 25.5403 12.1776 22.349 12.335 18.1212L12.335 18.1214ZM17.5378 18.2953C17.2635 18.4646 16.989 18.6327 16.7142 18.7998C16.4762 18.9449 16.2378 19.088 15.9988 19.2292C15.96 19.2519 15.934 19.2663 15.8992 19.2865C16.0785 19.7554 16.224 20.2441 16.3035 20.7293C16.3098 20.7677 16.315 20.8066 16.3202 20.8453L17.0714 20.869C17.815 20.8924 18.1559 20.7213 18.412 20.4862C18.2042 19.7991 17.8743 19.0084 17.5378 18.2953ZM13.0893 19.0381C13.0842 19.9094 13.125 20.7298 13.2084 21.5179C13.2843 21.6361 13.3933 21.7732 13.5315 21.9089C13.9477 22.3171 14.6042 22.7183 15.2922 23.0091C15.3291 23.0247 15.3663 23.0387 15.4033 23.0537C15.419 22.9626 15.4346 22.8689 15.4497 22.7707C15.5492 22.1248 15.6002 21.3324 15.5521 21.0387C15.4711 20.5448 15.2174 19.8413 14.9221 19.2073L13.0893 19.0381ZM16.3331 20.9558C16.4072 21.6644 16.3039 22.4122 16.2038 23.0624L16.2017 23.0755C16.4364 22.7419 16.6579 22.4233 16.8746 22.1129L16.3331 20.9558ZM17.9902 22.1945C17.0917 23.4273 15.9034 25.3597 14.468 26.8778C14.5337 27.0662 14.6006 27.2535 14.6687 27.4398C15.0054 27.3409 15.3383 27.2118 15.6657 27.0531C16.9075 26.4491 18.0442 25.4042 18.6037 24.1607C18.5972 23.7425 18.5451 23.2718 18.4317 22.904C18.3283 22.569 18.1953 22.3307 17.9902 22.1945ZM13.4669 23.2547C13.6304 24.1033 13.8442 24.9308 14.1017 25.7655C14.5247 25.306 14.9319 24.8034 15.3205 24.2898C15.2442 24.2604 15.1681 24.2298 15.0923 24.198C14.504 23.9495 13.939 23.6341 13.4669 23.2547ZM18.3393 26.3324C17.6486 27.1716 16.7849 27.796 15.8935 28.2295C15.6305 28.3575 15.3644 28.4689 15.0958 28.5636C15.175 28.7659 15.2549 28.9674 15.3355 29.1682L15.6595 29.9731L15.0632 30.1082C14.4058 30.2571 13.8913 30.3968 13.4645 30.5512C13.674 31.084 13.8558 31.6247 14.0693 32.0611C14.3246 32.5833 14.6005 32.9526 15.0648 33.0996C15.3973 33.2048 15.7129 33.2815 16.0117 33.3338C15.5644 32.1393 15.2005 31.0433 15.2917 31.0143C15.743 31.8688 16.2245 32.6833 16.7677 33.4163C17.0278 33.426 17.2706 33.4143 17.4955 33.384C17.213 32.6526 17.0172 31.8773 17.3514 30.8703C17.3863 31.3165 17.9036 32.278 18.4246 33.1092C18.885 32.8777 19.1828 32.5411 19.3492 32.1918C19.2643 31.7405 19.2091 31.32 19.1326 30.9678C19.0371 30.5285 18.9134 30.1649 18.5959 29.7697L18.4196 29.5503L18.4515 29.1984C18.5338 28.2889 18.4532 27.3324 18.3393 26.3324Z" fill="#7A89E9"/>
<path d="M31.3858 18.31V21.118H28.0018V31H24.4738V21.118H21.1258V18.31H31.3858ZM42.3391 25.834C42.3391 26.11 42.3211 26.386 42.2851 26.662H35.6071C35.6431 27.214 35.7931 27.628 36.0571 27.904C36.3331 28.168 36.6811 28.3 37.1011 28.3C37.6891 28.3 38.1091 28.036 38.3611 27.508H42.1231C41.9671 28.204 41.6611 28.828 41.2051 29.38C40.7611 29.92 40.1971 30.346 39.5131 30.658C38.8291 30.97 38.0731 31.126 37.2451 31.126C36.2491 31.126 35.3611 30.916 34.5811 30.496C33.8131 30.076 33.2071 29.476 32.7631 28.696C32.3311 27.916 32.1151 26.998 32.1151 25.942C32.1151 24.886 32.3311 23.974 32.7631 23.206C33.1951 22.426 33.7951 21.826 34.5631 21.406C35.3431 20.986 36.2371 20.776 37.2451 20.776C38.2411 20.776 39.1231 20.98 39.8911 21.388C40.6591 21.796 41.2591 22.384 41.6911 23.152C42.1231 23.908 42.3391 24.802 42.3391 25.834ZM38.7391 24.952C38.7391 24.52 38.5951 24.184 38.3071 23.944C38.0191 23.692 37.6591 23.566 37.2271 23.566C36.7951 23.566 36.4411 23.686 36.1651 23.926C35.8891 24.154 35.7091 24.496 35.6251 24.952H38.7391ZM43.2069 25.942C43.2069 24.898 43.4229 23.986 43.8549 23.206C44.2869 22.426 44.8869 21.826 45.6549 21.406C46.4349 20.986 47.3229 20.776 48.3189 20.776C49.6029 20.776 50.6829 21.13 51.5589 21.838C52.4349 22.534 52.9989 23.512 53.2509 24.772H49.5069C49.2909 24.112 48.8709 23.782 48.2469 23.782C47.8029 23.782 47.4489 23.968 47.1849 24.34C46.9329 24.7 46.8069 25.234 46.8069 25.942C46.8069 26.65 46.9329 27.19 47.1849 27.562C47.4489 27.934 47.8029 28.12 48.2469 28.12C48.8829 28.12 49.3029 27.79 49.5069 27.13H53.2509C52.9989 28.378 52.4349 29.356 51.5589 30.064C50.6829 30.772 49.6029 31.126 48.3189 31.126C47.3229 31.126 46.4349 30.916 45.6549 30.496C44.8869 30.076 44.2869 29.476 43.8549 28.696C43.4229 27.916 43.2069 26.998 43.2069 25.942ZM61.3585 20.812C62.5105 20.812 63.4225 21.202 64.0945 21.982C64.7785 22.75 65.1205 23.794 65.1205 25.114V31H61.5925V25.582C61.5925 25.006 61.4425 24.556 61.1425 24.232C60.8425 23.896 60.4405 23.728 59.9365 23.728C59.4085 23.728 58.9945 23.896 58.6945 24.232C58.3945 24.556 58.2445 25.006 58.2445 25.582V31H54.7165V17.68H58.2445V22.342C58.5565 21.886 58.9765 21.52 59.5045 21.244C60.0445 20.956 60.6625 20.812 61.3585 20.812Z" fill="#7A89E9"/>
<path d="M74.8503 23.296V26.23H66.6963V23.296H74.8503ZM87.0206 18.31V21.118H83.6366V31H80.1086V21.118H76.7606V18.31H87.0206ZM90.1079 19.966C89.4839 19.966 88.9799 19.798 88.5959 19.462C88.2239 19.114 88.0379 18.682 88.0379 18.166C88.0379 17.638 88.2239 17.2 88.5959 16.852C88.9799 16.504 89.4839 16.33 90.1079 16.33C90.7199 16.33 91.2119 16.504 91.5839 16.852C91.9679 17.2 92.1599 17.638 92.1599 18.166C92.1599 18.682 91.9679 19.114 91.5839 19.462C91.2119 19.798 90.7199 19.966 90.1079 19.966ZM91.8539 20.902V31H88.3259V20.902H91.8539ZM99.821 27.994V31H98.291C95.711 31 94.421 29.722 94.421 27.166V23.836H93.179V20.902H94.421V18.454H97.967V20.902H99.803V23.836H97.967V27.22C97.967 27.496 98.027 27.694 98.147 27.814C98.279 27.934 98.495 27.994 98.795 27.994H99.821ZM100.863 25.942C100.863 24.898 101.049 23.986 101.421 23.206C101.805 22.426 102.321 21.826 102.969 21.406C103.629 20.986 104.361 20.776 105.165 20.776C105.861 20.776 106.461 20.914 106.965 21.19C107.469 21.466 107.859 21.838 108.135 22.306V20.902H111.663V31H108.135V29.596C107.859 30.064 107.463 30.436 106.947 30.712C106.443 30.988 105.849 31.126 105.165 31.126C104.361 31.126 103.629 30.916 102.969 30.496C102.321 30.076 101.805 29.476 101.421 28.696C101.049 27.904 100.863 26.986 100.863 25.942ZM108.135 25.942C108.135 25.294 107.955 24.784 107.595 24.412C107.247 24.04 106.815 23.854 106.299 23.854C105.771 23.854 105.333 24.04 104.985 24.412C104.637 24.772 104.463 25.282 104.463 25.942C104.463 26.59 104.637 27.106 104.985 27.49C105.333 27.862 105.771 28.048 106.299 28.048C106.815 28.048 107.247 27.862 107.595 27.49C107.955 27.118 108.135 26.602 108.135 25.942ZM120.28 20.812C121.444 20.812 122.368 21.202 123.052 21.982C123.736 22.75 124.078 23.794 124.078 25.114V31H120.55V25.582C120.55 25.006 120.4 24.556 120.1 24.232C119.8 23.896 119.398 23.728 118.894 23.728C118.366 23.728 117.952 23.896 117.652 24.232C117.352 24.556 117.202 25.006 117.202 25.582V31H113.674V20.902H117.202V22.342C117.514 21.886 117.934 21.52 118.462 21.244C118.99 20.956 119.596 20.812 120.28 20.812ZM130.315 31.126C129.403 31.126 128.587 30.976 127.867 30.676C127.159 30.364 126.595 29.944 126.175 29.416C125.767 28.876 125.539 28.27 125.491 27.598H128.911C128.959 27.922 129.109 28.174 129.361 28.354C129.613 28.534 129.925 28.624 130.297 28.624C130.585 28.624 130.813 28.564 130.981 28.444C131.149 28.324 131.233 28.168 131.233 27.976C131.233 27.724 131.095 27.538 130.819 27.418C130.543 27.298 130.087 27.166 129.451 27.022C128.731 26.878 128.131 26.716 127.651 26.536C127.171 26.356 126.751 26.062 126.391 25.654C126.043 25.246 125.869 24.694 125.869 23.998C125.869 23.398 126.031 22.858 126.355 22.378C126.679 21.886 127.153 21.496 127.777 21.208C128.413 20.92 129.175 20.776 130.063 20.776C131.383 20.776 132.421 21.1 133.177 21.748C133.933 22.396 134.371 23.248 134.491 24.304H131.305C131.245 23.98 131.101 23.734 130.873 23.566C130.657 23.386 130.363 23.296 129.991 23.296C129.703 23.296 129.481 23.35 129.325 23.458C129.181 23.566 129.109 23.716 129.109 23.908C129.109 24.148 129.247 24.334 129.523 24.466C129.799 24.586 130.243 24.712 130.855 24.844C131.587 25 132.193 25.174 132.673 25.366C133.165 25.558 133.591 25.87 133.951 26.302C134.323 26.722 134.509 27.298 134.509 28.03C134.509 28.618 134.335 29.146 133.987 29.614C133.651 30.082 133.165 30.454 132.529 30.73C131.905 30.994 131.167 31.126 130.315 31.126Z" fill="black"/>
</svg>
