<svg width="448" height="85" viewBox="0 0 448 85" fill="none" xmlns="http://www.w3.org/2000/svg">
<path d="M35.5264 3.03711C32.3771 6.52403 31.4786 10.5334 31.8513 14.6606C32.334 20.0061 35.1477 25.4957 38.3931 29.4153C39.1016 30.1383 39.7052 30.3042 40.3049 30.2658C40.9128 30.2268 41.5682 29.9067 42.0909 29.374C42.6138 28.8415 42.9723 28.1197 43.047 27.4315C43.1215 26.7433 42.9737 26.0964 42.3824 25.4247L42.2996 25.3307L42.2346 25.2237C38.7699 19.55 34.2386 11.5294 35.5264 3.03711ZM56.7917 3.28823C57.7753 9.23339 56.03 14.8586 53.9563 19.7635C55.3454 20.8801 56.768 22.2235 58.1829 23.7061C59.4121 20.78 60.3234 17.6682 60.522 14.6347C60.7874 10.5824 59.8942 6.71286 56.7917 3.28823ZM47.0519 19.3679C47.0067 19.3675 46.9615 19.3695 46.9164 19.3738C46.0356 19.4611 44.6581 20.0398 43.1215 21.0702C43.6292 21.9578 44.1417 22.8138 44.643 23.6359C45.6722 24.8685 46.061 26.3744 45.9127 27.7427C45.7596 29.1536 45.0987 30.4251 44.1478 31.3937C43.1971 32.3622 41.9248 33.0509 40.4892 33.1428C39.0536 33.2349 37.5048 32.6534 36.2883 31.3909L36.2516 31.3531L36.2181 31.3127C35.7284 30.723 35.2585 30.1172 34.8091 29.4962C33.3932 31.4331 32.0944 33.5275 31.0241 35.66C31.8669 35.5921 32.5882 35.5339 33.6821 35.445C37.2606 35.1544 42.0027 34.7668 46.7351 34.379C54.4918 33.7435 59.679 33.3169 62.2162 33.1082C60.4613 30.675 58.4949 28.2528 56.518 26.1382C54.5416 24.0245 52.5534 22.2147 50.8172 21.0092C49.1894 19.879 47.7761 19.3719 47.0519 19.3679ZM44.643 23.6359C44.611 23.5975 44.5801 23.5583 44.5466 23.5205L44.6946 23.7215C44.6776 23.6936 44.6601 23.664 44.643 23.6359ZM64.0977 35.8458C62.5762 35.971 55.5522 36.549 46.9706 37.2523C42.619 37.6091 38.2672 37.9645 33.9154 38.3186C32.1761 38.4598 30.7435 38.5756 29.6873 38.6602C29.3627 39.4943 29.0777 40.3258 28.8449 41.1469L65.5706 38.2209C65.0986 37.4175 64.6075 36.6256 64.0977 35.8458ZM45.8059 42.456L28.4674 44.0329C24.2567 50.929 19.9195 56.6533 10.1471 60.6834C10.1295 62.4272 10.4833 63.9021 11.1745 65.2304C14.1864 64.7032 16.9898 64.0092 19.6663 63.2137C17.6905 64.9479 15.6435 66.6211 13.3329 68.0681C14.0018 68.726 14.7673 69.3556 15.6155 69.9639C19.9131 67.8338 25.7217 64.6146 28.1781 62.9511L18.5025 71.7887C19.3606 72.276 20.2656 72.7531 21.2075 73.2258C22.8651 72.4887 24.385 71.6602 25.5766 70.6128C25.2044 71.9945 24.6361 73.2978 23.9563 74.5563C24.839 74.9705 25.7232 75.3817 26.6088 75.7899C30.3961 73.2474 34.4172 70.1351 37.1094 67.9086C35.7385 70.6301 33.0267 74.4026 30.374 77.5513C31.3297 78.008 32.2879 78.4762 33.2413 78.9632C37.6487 75.1947 40.1879 72.7707 43.0165 71.1309C45.6339 69.6133 48.6016 68.8002 53.377 68.0309C48.3474 59.8373 45.2212 52.3608 45.8057 42.4556L45.8059 42.456ZM65.1263 42.8633C64.1079 43.26 63.0885 43.654 62.068 44.0453C61.1842 44.3853 60.2987 44.7207 59.4113 45.0514C59.2672 45.1047 59.1708 45.1383 59.0415 45.1856C59.7073 46.2843 60.2475 47.4292 60.5427 48.566C60.5661 48.656 60.5856 48.747 60.6047 48.8376L63.3946 48.8932C66.1558 48.9481 67.4216 48.5473 68.3726 47.9963C67.6012 46.3866 66.3759 44.5341 65.1263 42.8633ZM48.6067 44.6037C48.5878 46.6451 48.7393 48.5671 49.0491 50.4134C49.3309 50.6905 49.7358 51.0118 50.249 51.3295C51.7945 52.286 54.2325 53.2259 56.7875 53.9072C56.9243 53.9437 57.0626 53.9766 57.2001 54.0116C57.258 53.7983 57.316 53.5787 57.3722 53.3486C57.7415 51.8354 57.9312 49.9789 57.7526 49.2909C57.4518 48.1336 56.5095 46.4856 55.413 45.0001L48.6067 44.6037ZM60.6525 49.0966C60.928 50.7566 60.5444 52.5087 60.1727 54.032L60.1649 54.0627C61.0364 53.2812 61.8587 52.5348 62.6636 51.8074L60.6525 49.0966ZM66.8064 51.9986C63.4697 54.8869 59.0569 59.4142 53.7268 62.9709C53.9708 63.4123 54.2192 63.8512 54.4721 64.2876C55.7224 64.0559 56.9585 63.7535 58.1744 63.3817C62.7858 61.9666 67.0071 59.5185 69.0845 56.6052C69.0604 55.6255 68.867 54.5227 68.4457 53.6611C68.062 52.876 67.5681 52.3178 66.8064 51.9986ZM50.009 54.4825C50.616 56.4707 51.4101 58.4095 52.3664 60.365C53.9372 59.2885 55.4494 58.111 56.8924 56.9076C56.6092 56.8387 56.3267 56.7671 56.0449 56.6927C53.8603 56.1103 51.7623 55.3715 50.009 54.4825ZM68.1027 61.6932C65.5378 63.6593 62.3303 65.1222 59.0202 66.1379C58.0435 66.4377 57.0553 66.6988 56.058 66.9206C56.352 67.3945 56.6487 67.8667 56.9483 68.3371L58.1514 70.2228L55.9371 70.5393C53.4958 70.8881 51.5851 71.2155 50.0001 71.5773C50.778 72.8255 51.4533 74.0924 52.2459 75.1148C53.1942 76.3381 54.2186 77.2034 55.943 77.5477C57.1776 77.7944 58.3497 77.9739 59.4592 78.0964C57.7981 75.2979 56.4467 72.7302 56.7856 72.6623C58.4614 74.6643 60.2493 76.5725 62.2666 78.2897C63.2323 78.3125 64.134 78.2851 64.9692 78.214C63.9204 76.5006 63.1929 74.6841 64.4343 72.3249C64.5639 73.3702 66.4848 75.6228 68.4195 77.5703C70.1292 77.0279 71.2352 76.2394 71.8529 75.421C71.5379 74.3635 71.3327 73.3784 71.0486 72.5533C70.6942 71.5241 70.2347 70.6722 69.0558 69.7464L68.4011 69.2323L68.5193 68.4079C68.8252 66.2769 68.5257 64.0361 68.1027 61.6932Z" fill="#7A89E9"/>
<path d="M106.155 39.4862V46.9742H97.1305V73.3262H87.7225V46.9742H78.7945V39.4862H106.155ZM135.363 59.5502C135.363 60.2862 135.315 61.0222 135.219 61.7582H117.411C117.507 63.2302 117.907 64.3342 118.611 65.0702C119.347 65.7742 120.275 66.1262 121.395 66.1262C122.963 66.1262 124.083 65.4222 124.755 64.0142H134.787C134.371 65.8702 133.555 67.5342 132.339 69.0062C131.155 70.4462 129.651 71.5822 127.827 72.4142C126.003 73.2462 123.987 73.6622 121.779 73.6622C119.123 73.6622 116.755 73.1022 114.675 71.9822C112.627 70.8622 111.011 69.2622 109.827 67.1822C108.675 65.1022 108.099 62.6542 108.099 59.8382C108.099 57.0222 108.675 54.5902 109.827 52.5422C110.979 50.4622 112.579 48.8622 114.627 47.7422C116.707 46.6222 119.091 46.0622 121.779 46.0622C124.435 46.0622 126.787 46.6062 128.835 47.6942C130.883 48.7822 132.483 50.3502 133.635 52.3982C134.787 54.4142 135.363 56.7982 135.363 59.5502ZM125.763 57.1982C125.763 56.0462 125.379 55.1502 124.611 54.5102C123.843 53.8382 122.883 53.5022 121.731 53.5022C120.579 53.5022 119.635 53.8222 118.899 54.4622C118.163 55.0702 117.683 55.9822 117.459 57.1982H125.763ZM137.677 59.8382C137.677 57.0542 138.253 54.6222 139.405 52.5422C140.557 50.4622 142.157 48.8622 144.205 47.7422C146.285 46.6222 148.653 46.0622 151.309 46.0622C154.733 46.0622 157.613 47.0062 159.949 48.8942C162.285 50.7502 163.789 53.3582 164.461 56.7182H154.477C153.901 54.9582 152.781 54.0782 151.117 54.0782C149.933 54.0782 148.989 54.5742 148.285 55.5662C147.613 56.5262 147.277 57.9502 147.277 59.8382C147.277 61.7262 147.613 63.1662 148.285 64.1582C148.989 65.1502 149.933 65.6462 151.117 65.6462C152.813 65.6462 153.933 64.7662 154.477 63.0062H164.461C163.789 66.3342 162.285 68.9422 159.949 70.8302C157.613 72.7182 154.733 73.6622 151.309 73.6622C148.653 73.6622 146.285 73.1022 144.205 71.9822C142.157 70.8622 140.557 69.2622 139.405 67.1822C138.253 65.1022 137.677 62.6542 137.677 59.8382ZM186.082 46.1582C189.154 46.1582 191.586 47.1982 193.378 49.2782C195.202 51.3262 196.114 54.1102 196.114 57.6302V73.3262H186.706V58.8782C186.706 57.3422 186.306 56.1422 185.506 55.2782C184.706 54.3822 183.634 53.9342 182.29 53.9342C180.882 53.9342 179.778 54.3822 178.978 55.2782C178.178 56.1422 177.778 57.3422 177.778 58.8782V73.3262H168.37V37.8062H177.778V50.2382C178.61 49.0222 179.73 48.0462 181.138 47.3102C182.578 46.5422 184.226 46.1582 186.082 46.1582Z" fill="#7A89E9"/>
<path d="M222.06 52.7822V60.6062H200.316V52.7822H222.06ZM254.514 39.4862V46.9742H245.49V73.3262H236.082V46.9742H227.154V39.4862H254.514ZM262.747 43.9022C261.083 43.9022 259.739 43.4542 258.715 42.5582C257.723 41.6302 257.227 40.4782 257.227 39.1022C257.227 37.6942 257.723 36.5262 258.715 35.5982C259.739 34.6702 261.083 34.2062 262.747 34.2062C264.379 34.2062 265.691 34.6702 266.683 35.5982C267.707 36.5262 268.219 37.6942 268.219 39.1022C268.219 40.4782 267.707 41.6302 266.683 42.5582C265.691 43.4542 264.379 43.9022 262.747 43.9022ZM267.403 46.3982V73.3262H257.995V46.3982H267.403ZM288.648 65.3102V73.3262H284.568C277.688 73.3262 274.248 69.9182 274.248 63.1022V54.2222H270.936V46.3982H274.248V39.8702H283.704V46.3982H288.6V54.2222H283.704V63.2462C283.704 63.9822 283.864 64.5102 284.184 64.8302C284.536 65.1502 285.112 65.3102 285.912 65.3102H288.648ZM291.427 59.8382C291.427 57.0542 291.923 54.6222 292.915 52.5422C293.939 50.4622 295.315 48.8622 297.043 47.7422C298.803 46.6222 300.755 46.0622 302.899 46.0622C304.755 46.0622 306.355 46.4302 307.699 47.1662C309.043 47.9022 310.083 48.8942 310.819 50.1422V46.3982H320.227V73.3262H310.819V69.5822C310.083 70.8302 309.027 71.8222 307.651 72.5582C306.307 73.2942 304.723 73.6622 302.899 73.6622C300.755 73.6622 298.803 73.1022 297.043 71.9822C295.315 70.8622 293.939 69.2622 292.915 67.1822C291.923 65.0702 291.427 62.6222 291.427 59.8382ZM310.819 59.8382C310.819 58.1102 310.339 56.7502 309.379 55.7582C308.451 54.7662 307.299 54.2702 305.923 54.2702C304.515 54.2702 303.347 54.7662 302.419 55.7582C301.491 56.7182 301.027 58.0782 301.027 59.8382C301.027 61.5662 301.491 62.9422 302.419 63.9662C303.347 64.9582 304.515 65.4542 305.923 65.4542C307.299 65.4542 308.451 64.9582 309.379 63.9662C310.339 62.9742 310.819 61.5982 310.819 59.8382ZM343.204 46.1582C346.308 46.1582 348.772 47.1982 350.596 49.2782C352.42 51.3262 353.332 54.1102 353.332 57.6302V73.3262H343.924V58.8782C343.924 57.3422 343.524 56.1422 342.724 55.2782C341.924 54.3822 340.852 53.9342 339.508 53.9342C338.1 53.9342 336.996 54.3822 336.196 55.2782C335.396 56.1422 334.996 57.3422 334.996 58.8782V73.3262H325.588V46.3982H334.996V50.2382C335.828 49.0222 336.948 48.0462 338.356 47.3102C339.764 46.5422 341.38 46.1582 343.204 46.1582ZM369.967 73.6622C367.535 73.6622 365.359 73.2622 363.439 72.4622C361.551 71.6302 360.047 70.5102 358.927 69.1022C357.839 67.6622 357.231 66.0462 357.103 64.2542H366.223C366.351 65.1182 366.751 65.7902 367.423 66.2702C368.095 66.7502 368.927 66.9902 369.919 66.9902C370.687 66.9902 371.295 66.8302 371.743 66.5102C372.191 66.1902 372.415 65.7742 372.415 65.2622C372.415 64.5902 372.047 64.0942 371.311 63.7742C370.575 63.4542 369.359 63.1022 367.663 62.7182C365.743 62.3342 364.143 61.9022 362.863 61.4222C361.583 60.9422 360.463 60.1582 359.503 59.0702C358.575 57.9822 358.111 56.5102 358.111 54.6542C358.111 53.0542 358.543 51.6142 359.407 50.3342C360.271 49.0222 361.535 47.9822 363.199 47.2142C364.895 46.4462 366.927 46.0622 369.295 46.0622C372.815 46.0622 375.583 46.9262 377.599 48.6542C379.615 50.3822 380.783 52.6542 381.103 55.4702H372.607C372.447 54.6062 372.063 53.9502 371.455 53.5022C370.879 53.0222 370.095 52.7822 369.103 52.7822C368.335 52.7822 367.743 52.9262 367.327 53.2142C366.943 53.5022 366.751 53.9022 366.751 54.4142C366.751 55.0542 367.119 55.5502 367.855 55.9022C368.591 56.2222 369.775 56.5582 371.407 56.9102C373.359 57.3262 374.975 57.7902 376.255 58.3022C377.567 58.8142 378.703 59.6462 379.663 60.7982C380.655 61.9182 381.151 63.4542 381.151 65.4062C381.151 66.9742 380.687 68.3822 379.759 69.6302C378.863 70.8782 377.567 71.8702 375.871 72.6062C374.207 73.3102 372.239 73.6622 369.967 73.6622Z" fill="black"/>
</svg>
