<svg xmlns="http://www.w3.org/2000/svg" width="575" height="414" fill="none" viewBox="0 0 575 414">
  <g clip-path="url(#a)">
    <path fill="#CCC" d="M283.51 412.251h-22.088V242.453h17.964a3.292 3.292 0 0 1 3.291 3.271l.833 166.527Z"/>
    <path fill="#fff" d="M263.486 413.15h-237.2V292.225h237.2V413.15Z"/>
    <path fill="#F2F2F2" d="M169.994 412.7H26.737V292.674h236.299v27.094a92.98 92.98 0 0 1-27.282 65.682 93.205 93.205 0 0 1-65.76 27.25Z"/>
    <path fill="#F2F2F2" d="M279.913 247.276a3.305 3.305 0 0 0-.276.711l-8.179 31.489-8.872 16.783H27.187v-4.18l13.402-12.603 15.634-29.869a13.347 13.347 0 0 1 11.827-7.154h208.953a3.3 3.3 0 0 1 2.819 1.591 3.28 3.28 0 0 1 .091 3.232Z"/>
    <path fill="#E6E6E6" d="M263.486 413.15h-237.2V292.225h237.2V413.15Zm-235.398-1.799h233.598V294.023H28.088v117.328Z"/>
    <path fill="#CCC" d="m275.828 263.385-4.37 16.091H40.59l7.46-13.393 227.778-2.698Z"/>
    <path fill="#fff" d="M72.846 355.591H35.034v2.09h37.812v-2.09Zm0 7.315H35.034v2.09h37.812v-2.09Zm0 7.315H35.034v2.09h37.812v-2.09ZM49.68 332.31c7.512 0 13.602-6.082 13.602-13.584 0-7.503-6.09-13.585-13.601-13.585-7.512 0-13.6 6.082-13.6 13.585 0 7.502 6.088 13.584 13.6 13.584Z"/>
    <path fill="#CCC" d="M198.748 270.35h-11.551v-88.796h9.394a1.72 1.72 0 0 1 1.722 1.711l.435 87.085Z"/>
    <path fill="#fff" d="M188.277 270.821H64.233v-63.238h124.044v63.238Z"/>
    <path fill="#F2F2F2" d="M139.385 270.585H64.468v-62.767h123.574v14.169a48.626 48.626 0 0 1-14.268 34.348 48.736 48.736 0 0 1-34.389 14.25Z"/>
    <path fill="#F2F2F2" d="M196.867 184.076a1.716 1.716 0 0 0-.144.372l-4.278 16.468-4.639 8.776H64.703v-2.186l7.009-6.59 8.176-15.621a6.986 6.986 0 0 1 6.185-3.741h109.272a1.723 1.723 0 0 1 1.721 1.671c.008.296-.06.589-.199.851Z"/>
    <path fill="#E6E6E6" d="M188.277 270.821H64.233v-63.238h124.044v63.238Zm-123.103-.941h122.161v-61.357H65.175v61.357Z"/>
    <path fill="#CCC" d="m194.73 192.501-2.285 8.414H71.712l3.901-7.004 119.117-1.41Z"/>
    <path fill="#fff" d="M88.58 240.72H68.808v1.093H88.58v-1.093Zm0 3.825H68.808v1.093H88.58v-1.093Zm0 3.826H68.808v1.093H88.58v-1.093Zm-12.113-19.826a7.108 7.108 0 0 0 7.112-7.104c0-3.923-3.184-7.104-7.112-7.104-3.929 0-7.113 3.181-7.113 7.104 0 3.924 3.184 7.104 7.113 7.104Z"/>
    <path fill="#F2F2F2" d="m539.175 413.088-.072-.383a45.033 45.033 0 0 1 9.547-36.662 43.767 43.767 0 0 1 8.042-7.465l.285-.205.124.328c1.484 3.908 3.358 7.822 4.211 9.555l.576-12.933.329-.175a8.567 8.567 0 0 1 9.537.983 8.684 8.684 0 0 1 2.873 9.307c-.448 1.519-.87 3.096-1.279 4.62-1.406 5.238-2.858 10.654-5.674 15.215a27.284 27.284 0 0 1-19.843 12.522l-8.656 5.293Z"/>
    <path fill="#CCC" d="M575 412.93a1.067 1.067 0 0 1-1.071 1.07H1.071a1.07 1.07 0 1 1 0-2.14H573.93a1.07 1.07 0 0 1 .99.66c.054.13.081.269.081.41Z"/>
    <path fill="#FFB8B8" d="m445.063 139.134-16.397-2.346c-5.546 9.262-7.517 33.915-7.517 33.915l-16.047 38.096a7.299 7.299 0 0 0-1.936 10.153 7.313 7.313 0 0 0 6.593 3.173 7.321 7.321 0 0 0 6.044-4.121 7.3 7.3 0 0 0 .7-3.719l26.348-44.342 2.212-30.809Z"/>
    <path fill="#E6E6E6" d="M442.453 93.666a17.487 17.487 0 0 1 12.324 8.291 17.44 17.44 0 0 1 1.482 14.767l-3.479 9.851s-1.895 29.661-9.118 38.034l-22.166-2.004s4.052-14.965.941-22.205c-1.905-4.434-1.799-19.749.078-32.208a17.4 17.4 0 0 1 6.952-11.393 17.447 17.447 0 0 1 12.986-3.133Z"/>
    <path fill="#FFB6B6" d="m496.642 401.437-9.877-.001-4.699-38.053h14.578l-.002 38.054Z"/>
    <path fill="#2F2E41" d="m496.99 411.728-30.374-.001v-.384a11.805 11.805 0 0 1 3.463-8.349 11.836 11.836 0 0 1 8.36-3.459l5.549-4.204 10.351 4.205h2.652l-.001 12.192Z"/>
    <path fill="#FFB6B6" d="m453.701 354.276-9.124 3.778-18.935-33.352 13.466-5.577 14.593 35.151Z"/>
    <path fill="#2F2E41" d="m457.969 363.649-28.057 11.621-.147-.355a11.793 11.793 0 0 1-.003-9.037 11.815 11.815 0 0 1 6.395-6.394l3.513-6.006 11.175-.077 2.449-1.014 4.675 11.262Z"/>
    <path fill="#2F2E41" d="m507.936 184.969-70.097 7.315-9.376 31.543-32.473 52.122 35.854 65.795 12.627-11.319-12.12-53.131 36.175-39.007 6.859-2.843 5.446 144.748 20.14.33 8.813-159.721c4.235-14.109 2.96-25.76-1.848-35.832Z"/>
    <path fill="#E6E6E6" d="m482.236 85.11-11.505-12.939-18.18 2.018-11.64 16.27a24.85 24.85 0 0 0-15.128 10.451 24.794 24.794 0 0 0-3.788 17.978c4.517 25.978 19.867 51.173 14.798 63.991-7.694 19.457-8.163 27.392 10.254 24.664 18.417-2.728 80.118-9.016 68.155-20.964-11.962-11.948-14.59-31.914-14.59-31.914l-.479-45.679a20.294 20.294 0 0 0-9.967-21.343 20.34 20.34 0 0 0-7.93-2.532Z"/>
    <path fill="#FFB8B8" d="M459.752 68.86c11.146 0 20.181-9.025 20.181-20.157s-9.035-20.157-20.181-20.157c-11.145 0-20.18 9.025-20.18 20.157s9.035 20.157 20.18 20.157Z"/>
    <path fill="#2F2E41" d="M484.618 47.506a35.03 35.03 0 0 1-4.8 11.486 7.818 7.818 0 0 1-2.618 2.97 2.863 2.863 0 0 1-3.636-.455l-.491-.4a10.413 10.413 0 0 0 2.546-2.206 3.546 3.546 0 0 0 .681-3.169 2.181 2.181 0 0 0-2.672-1.425c-1.182.463-1.9 2.17-3.137 1.907-1-.218-1.209-1.535-1.209-2.57.037-5.411-2.581-13.102-4.609-12.866a16.363 16.363 0 0 1-6.045-.808 15.853 15.853 0 0 0-6.054-.772c-.146.018-.291.045-.446.073a13.368 13.368 0 0 0-1.345-2.933c.064 1.11.009 2.224-.164 3.323a31.116 31.116 0 0 1-5.036 1.59c-1.873.263-5.991 5.856-6.182 5.284a13.366 13.366 0 0 0-1.345-2.933c.064 1.11.009 2.224-.164 3.323-.009.045-.009.082-.018.127-.909-1.208-1.464-2.678-1.154-1.553-3.046-6.882-1.864-11.812 2.927-17.614a9.203 9.203 0 0 1 3.591-2.879 4.531 4.531 0 0 1 4.418.436 14.869 14.869 0 0 1 14.745-3.142c4.99 1.735 8.836 2.752 9.599 7.982 4.128-.663 8.373 1.68 10.646 5.175 2.263 3.505 2.727 7.954 1.972 12.05Z"/>
    <path fill="#3F3D56" d="M468.253 214.927h-6.698v-51.489h5.448a.997.997 0 0 1 .998.991l.252 50.498Z"/>
    <path fill="#fff" d="M462.181 215.2h-71.929v-36.67h71.929v36.67Z"/>
    <path fill="#7A89E9" d="M433.831 215.063h-43.442v-36.396h71.656v8.216a28.199 28.199 0 0 1-8.273 19.917 28.263 28.263 0 0 1-19.941 8.263Z"/>
    <path fill="#3F3D56" d="M467.162 164.9a.986.986 0 0 0-.083.215l-2.481 9.549-2.69 5.09h-71.383v-1.268l4.064-3.822 4.741-9.057a4.051 4.051 0 0 1 3.587-2.169h63.363a.994.994 0 0 1 .882 1.462Z"/>
    <path fill="#3F3D56" d="M462.181 215.2h-71.929v-36.67h71.929v36.67Zm-71.383-.546h70.837v-35.578h-70.837v35.578Z"/>
    <path fill="#7A89E9" d="m465.923 169.784-1.324 4.881H394.59l2.261-4.062 69.072-.819Z"/>
    <path fill="#fff" d="M404.371 197.746h-11.466v.633h11.466v-.633Zm0 2.218h-11.466v.634h11.466v-.634Zm0 2.218h-11.466v.634h11.466v-.634Zm-7.024-11.496a4.122 4.122 0 0 0 4.124-4.12 4.122 4.122 0 0 0-4.124-4.119 4.122 4.122 0 0 0-4.125 4.119 4.122 4.122 0 0 0 4.125 4.12Z"/>
    <path fill="#FFB8B8" d="m496.236 134.426-16.397-2.345c-5.546 9.262-7.516 33.914-7.516 33.914l-16.048 38.096a7.297 7.297 0 0 0 .935 12.623 7.315 7.315 0 0 0 7.298-.548 7.297 7.297 0 0 0 3.168-6.589l26.348-44.342 2.212-30.809Z"/>
    <path fill="#E6E6E6" d="M487.349 88.958a17.487 17.487 0 0 1 12.324 8.291 17.442 17.442 0 0 1 1.482 14.767l-3.479 9.851s4.383 29.662-2.841 38.034l-22.166-2.004s4.053-14.964.941-22.205c-1.905-4.434-1.799-19.749.078-32.207 1.434-9.513 4.143-15.999 13.661-14.527Z"/>
    <path fill="#7A89E9" d="M348.115 39.881a33.722 33.722 0 0 0-16.947 19.477 33.674 33.674 0 0 0 1.805 25.74c8.32 16.664 38.385 45.082 62.373 49.376-10.318-31.294 4.029-63.102-1.96-79.47-6.4-17.488-28.589-23.433-45.271-15.123Z"/>
    <path fill="#fff" d="M359.36 79.51c6.079 0 11.008-4.922 11.008-10.995 0-6.072-4.929-10.995-11.008-10.995-6.08 0-11.009 4.923-11.009 10.995 0 6.073 4.929 10.996 11.009 10.996Z"/>
    <path fill="#7A89E9" d="M395.135 152.122c3.982 0 7.21-3.224 7.21-7.201 0-3.978-3.228-7.202-7.21-7.202-3.982 0-7.21 3.224-7.21 7.202 0 3.977 3.228 7.201 7.21 7.201Z"/>
    <path fill="#231F20" d="M362.715 56.957a11.02 11.02 0 0 1 7.894 2.952 10.99 10.99 0 0 1 3.49 7.664 10.988 10.988 0 0 1-2.962 7.883 11.01 11.01 0 0 1-7.677 3.479 11.002 11.002 0 0 0 5.771-4.94 10.981 10.981 0 0 0-2.769-13.979 11.016 11.016 0 0 0-7.22-2.372 11.02 11.02 0 0 1 3.473-.687Z" opacity=".2"/>
    <path fill="#231F20" d="M393.441 55.011c5.99 16.367-8.358 48.176 1.961 79.469a46.729 46.729 0 0 1-6.673-1.744c-8.407-30.251 4.788-60.48-.998-76.293-5.179-14.153-20.7-20.744-35.273-18.34 15.995-5.449 35.119.882 40.983 16.908Z" opacity=".2"/>
    <path fill="#D1D3D4" d="M55.513 206.862a31.295 31.295 0 0 0-22.33 8.617 31.222 31.222 0 0 0-9.689 21.864c-.415 17.248 11.881 53.537 29.665 67.436 5.126-30.096 30.676-49.939 32.872-65.936 2.346-17.094-13.249-31.567-30.518-31.981Z"/>
    <path fill="#fff" d="M52.3 245.37c5.634 0 10.201-4.562 10.201-10.189s-4.567-10.188-10.2-10.188c-5.634 0-10.2 4.561-10.2 10.188 0 5.627 4.566 10.189 10.2 10.189Z"/>
    <path fill="#D1D3D4" d="M48.454 319.917a6.677 6.677 0 0 0 6.681-6.673 6.677 6.677 0 0 0-6.681-6.673 6.677 6.677 0 0 0-6.681 6.673 6.677 6.677 0 0 0 6.68 6.673Z"/>
    <path fill="#231F20" d="M60.063 227.166a10.193 10.193 0 0 1 5.18 5.835 10.178 10.178 0 0 1-2.875 10.951 10.215 10.215 0 0 1-11.23 1.538 10.206 10.206 0 0 0 6.87-1.549 10.175 10.175 0 0 0 3.796-12.647 10.19 10.19 0 0 0-4.883-5.068c1.091.142 2.153.46 3.142.94Z" opacity=".2"/>
    <path fill="#231F20" d="M86.074 238.872c-2.196 15.997-27.747 35.84-32.872 65.936a43.225 43.225 0 0 1-4.708-4.316c6.238-28.416 30.16-47.463 32.281-62.919 1.898-13.834-7.953-25.95-20.933-30.288 15.464 2.46 28.381 15.922 26.232 31.587Z" opacity=".2"/>
    <path fill="#FFB6B6" d="M174.175 74.11a8.97 8.97 0 0 0-6.074 2.94 8.948 8.948 0 0 0-2.3 6.338c.025.474.09.944.193 1.407l-26.467 16.654 14.632 6.464 22.891-16.806a8.939 8.939 0 0 0 6.322-8.889 8.546 8.546 0 0 0-5.66-7.63 8.565 8.565 0 0 0-3.537-.477Z"/>
    <path fill="#7A89E9" d="m148.653 93.88 6.559 13.518-25.935 16.67a12.92 12.92 0 0 1-12.542.839 12.338 12.338 0 0 1-6.856-13.169l8.415-47.988a13.31 13.31 0 0 1 5.119-8.423 13.34 13.34 0 0 1 9.515-2.6 12.656 12.656 0 0 1 8.483 4.646 12.614 12.614 0 0 1 2.66 9.667c-.063.46-.152.918-.265 1.37l-9.187 34.128 14.034-8.658Z"/>
    <path fill="#FFB8B8" d="M150.496 114.836h-37.091v37.047h37.091v-37.047Z"/>
    <path fill="#FFB6B6" d="m238.458 223.942 14.165-4.76 7.888 38.513-9.599 3.225-12.454-36.978Zm-24.009-2.959 14.051-5.088 8.784 38.318-9.521 3.447-13.314-36.677Z"/>
    <path fill="#2F2E41" d="M114.736 161.562c-7.435 49.502 91.565 20.235 91.565 20.235l31.04 42.77 18.173-3.3s-8.177-25.676-22.78-60.096c-6.486-15.285-80.124-11.55-80.124-11.55l-1.53-11.986-42.127-.825 5.783 24.752Z"/>
    <path fill="#2F2E41" d="m186.247 185.116 22.893-14.241c16.759 33.426 21.699 47.902 21.699 47.902l-15.844 4.45-28.748-38.111Z"/>
    <path fill="#7A89E9" d="m135.925 54.635-7.466-9.585-10.65-.462-1.063 9.015-5.276 2.43a141.188 141.188 0 0 0-2.384 61.241 5.452 5.452 0 0 1 1.553 5.296l-.343 1.363.032.049a7.974 7.974 0 0 1 1.061 5.958l-2.52 4.472a12.692 12.692 0 0 0-.83 10.65 12.716 12.716 0 0 0 7.599 7.516c15.49 5.608 30.011 7.697 40.753-8.04l3.378-54.841-23.844-35.062Z"/>
    <path fill="#FFB8B8" d="M128.104 47.595c10.874 0 19.69-8.805 19.69-19.667 0-10.862-8.816-19.667-19.69-19.667-10.875 0-19.691 8.805-19.691 19.667 0 10.862 8.816 19.667 19.691 19.667Z"/>
    <path fill="#2F2E41" d="M118.219 4.22c-8.338.16-14.95 7.884-14.77 17.252-6.17 6.43-7.664 38.057-2.509 46.47 9.43 1.094 15.167-22.21 23.437-18.84l1.089-5.086 2.47 6.623a89.894 89.894 0 0 1 6.258 3.186c1.487-6.815 1.118-13.44-2.88-19.21-3.552-5.126 5.092-11.212 11.274-10.351l-.09-4.709 1.552 4.68c2.41 1.77 5.076 1.129 7.809-.15 4.433-23.01-29.885-29.302-33.64-19.866ZM246.55 267.434l6.311-.824.348-6.098 3.663 5.575 16.739-2.184a3.803 3.803 0 0 0 2.135-1.022 3.788 3.788 0 0 0-.893-6.108l-14.573-7.477-.787-6.016-13.95 2.672 1.007 21.482Z"/>
    <path fill="#2F2E41" d="m229.88 267.489 5.726-2.777-1.603-5.895 5.242 4.13 15.186-7.365a3.792 3.792 0 0 0 2.094-3.976 3.789 3.789 0 0 0-3.176-3.18l-16.194-2.484-2.653-5.458-12.386 6.946 7.764 20.059Z"/>
    <path fill="#CCC" d="M143.448 136.339h7.021v-53.97h-5.71a1.046 1.046 0 0 0-1.046 1.04l-.265 52.93Z"/>
    <path fill="#fff" d="M149.813 98.189h75.394v38.436h-75.394V98.189Z"/>
    <path fill="#F2F2F2" d="M149.956 106.944v-8.612h75.108v38.15H179.53a29.627 29.627 0 0 1-20.902-8.661 29.557 29.557 0 0 1-8.672-20.877Z"/>
    <path fill="#F2F2F2" d="M144.592 83.902c.038.072.067.147.088.226l2.599 10.009 2.82 5.334h74.822v-1.328l-4.26-4.006-4.969-9.494a4.25 4.25 0 0 0-3.759-2.274h-66.416a1.046 1.046 0 0 0-.925 1.533Z"/>
    <path fill="#E6E6E6" d="M149.813 98.189h75.394v38.436h-75.394V98.189Zm74.822 37.864h-74.249V98.761h74.249v37.292Z"/>
    <path fill="#CCC" d="m145.89 89.022 1.39 5.115h73.381l-2.371-4.257-72.4-.858Z"/>
    <path fill="#fff" d="M222.427 118.33h-12.019v.664h12.019v-.664Zm0 2.325h-12.019v.664h12.019v-.664Zm0 2.325h-12.019v.664h12.019v-.664Zm-4.656-12.05a4.32 4.32 0 0 0 4.323-4.318 4.32 4.32 0 0 0-4.323-4.318 4.321 4.321 0 0 0-4.323 4.318 4.32 4.32 0 0 0 4.323 4.318Z"/>
    <path fill="#D1D3D4" d="M182.898 41.37a19.176 19.176 0 0 1 13.682 5.28 19.13 19.13 0 0 1 5.937 13.397c.254 10.569-7.28 32.805-18.177 41.321-3.141-18.441-18.797-30.6-20.142-40.402-1.437-10.474 8.118-19.342 18.7-19.596Z"/>
    <path fill="#fff" d="M184.866 64.965a6.246 6.246 0 0 0 6.25-6.243 6.246 6.246 0 0 0-6.25-6.242 6.246 6.246 0 0 0-6.25 6.242 6.246 6.246 0 0 0 6.25 6.243Z"/>
    <path fill="#D1D3D4" d="M187.223 110.644a4.092 4.092 0 0 0 4.094-4.089 4.092 4.092 0 0 0-4.094-4.089 4.092 4.092 0 0 0-4.094 4.089 4.092 4.092 0 0 0 4.094 4.089Z"/>
    <path fill="#231F20" d="M180.11 53.812a6.258 6.258 0 0 0-3.174 3.575 6.241 6.241 0 0 0 6.283 8.27 6.258 6.258 0 0 0 2.359-.618 6.253 6.253 0 0 1-6.8-4.396 6.24 6.24 0 0 1 3.257-7.408 6.248 6.248 0 0 0-1.925.577Z" opacity=".2"/>
    <path fill="#231F20" d="M164.172 60.984c1.345 9.802 17.001 21.96 20.142 40.402a26.509 26.509 0 0 0 2.885-2.645c-3.823-17.411-18.481-29.082-19.78-38.553-1.164-8.477 4.873-15.9 12.826-18.559-9.476 1.508-17.39 9.757-16.073 19.355Z" opacity=".2"/>
    <path fill="#FFB6B6" d="M171.763 93.283a8.971 8.971 0 0 0-6.423 2.07 8.953 8.953 0 0 0-3.16 5.957c-.04.472-.041.947-.004 1.42l-28.525 12.823 13.592 8.43 25.005-13.469a8.944 8.944 0 0 0 5.099-2.688 8.923 8.923 0 0 0 2.397-5.238 8.538 8.538 0 0 0-1.948-6.246 8.557 8.557 0 0 0-6.033-3.059Z"/>
    <path fill="#7A89E9" d="m143.74 109.322 4.618 14.297-28.002 12.912a12.918 12.918 0 0 1-12.537-.907 12.337 12.337 0 0 1-4.959-13.993l15.004-46.357a13.316 13.316 0 0 1 6.239-7.631 13.345 13.345 0 0 1 9.785-1.256 12.654 12.654 0 0 1 7.755 5.778 12.624 12.624 0 0 1 1.291 9.941 13 13 0 0 1-.453 1.32l-13.842 32.524 15.101-6.628Z"/>
  </g>
  <defs>
    <clipPath id="a">
      <path fill="#fff" d="M0 0h575v414H0z"/>
    </clipPath>
  </defs>
</svg>
